<svg width="15" height="20" viewBox="0 0 15 20" fill="none" xmlns="http://www.w3.org/2000/svg">
<path d="M7.0692 4.38306C5.6597 4.38306 4.51245 5.53031 4.51245 6.93981C4.51245 8.34931 5.6597 9.49656 7.0692 9.49656C8.4787 9.49656 9.62595 8.34931 9.62595 6.93981C9.62595 5.53031 8.4787 4.38306 7.0692 4.38306ZM7.0692 8.76606C6.06221 8.76606 5.24295 7.9468 5.24295 6.93981C5.24295 5.93281 6.06221 5.11356 7.0692 5.11356C8.0762 5.11356 8.89545 5.93281 8.89545 6.93981C8.89545 7.9468 8.0762 8.76606 7.0692 8.76606Z" fill="black"/>
<path d="M11.9574 2.05161C10.6344 0.728674 8.87538 0 7.00456 0C5.13339 0 3.37471 0.728674 2.05177 2.05161C-0.396498 4.49952 -0.700751 9.10532 1.39286 11.8958L7.00456 20L12.6079 11.9072C14.7099 9.10532 14.4056 4.49952 11.9574 2.05161ZM12.0154 11.4802L7.00456 18.7165L1.98566 11.4689C0.086728 8.93694 0.358839 4.77747 2.5686 2.56807C3.75347 1.3832 5.3288 0.7305 7.00456 0.7305C8.68033 0.7305 10.2557 1.3832 11.4409 2.56807C13.6507 4.77747 13.9228 8.93694 12.0154 11.4802Z" fill="black"/>
</svg>
