<?xml version="1.0" standalone="no"?>
<!DOCTYPE svg PUBLIC "-//W3C//DTD SVG 20010904//EN"
 "http://www.w3.org/TR/2001/REC-SVG-20010904/DTD/svg10.dtd">
<svg version="1.0" xmlns="http://www.w3.org/2000/svg"
 width="145.000000pt" height="145.000000pt" viewBox="0 0 145.000000 145.000000"
 preserveAspectRatio="xMidYMid meet">
<metadata>
Created by potrace 1.11, written by Peter Selinger 2001-2013
</metadata>
<g transform="translate(0.000000,145.000000) scale(0.100000,-0.100000)"
fill="#000000" stroke="none">
<path d="M641 1328 c-19 -5 -50 -20 -69 -33 -25 -17 -40 -21 -52 -15 -23 12
-58 2 -65 -20 -3 -10 -3 -41 0 -68 5 -43 2 -56 -20 -87 -14 -21 -25 -43 -25
-49 0 -7 -14 -34 -32 -62 -44 -69 -64 -130 -61 -193 l2 -53 -74 -72 c-95 -92
-113 -131 -115 -251 -2 -109 13 -146 98 -245 7 -8 23 -31 36 -50 l22 -35 344
-3 c190 -1 355 0 367 3 13 3 38 19 58 36 23 21 48 32 75 35 22 2 50 9 61 15
12 6 32 13 46 15 38 7 59 21 81 51 30 43 34 82 16 152 -19 76 -44 123 -90 171
-19 19 -34 38 -34 42 0 4 -21 22 -48 40 -61 42 -79 64 -92 113 -6 22 -23 72
-38 110 -27 73 -33 165 -11 191 6 7 12 23 15 36 2 13 7 38 10 56 6 28 2 37
-30 67 -20 18 -36 41 -36 49 0 8 -13 25 -30 37 -26 20 -43 23 -152 24 -68 1
-138 -2 -157 -7z"/>
</g>
</svg>
