<svg width="29" height="15" viewBox="0 0 29 15" fill="none" xmlns="http://www.w3.org/2000/svg">
<path d="M26.1457 6.35902L25.4177 3.90273C25.6167 3.86707 25.7661 3.71812 25.7661 3.53967V3.14364C25.7661 2.28377 24.9366 1.58423 23.9172 1.58423H20.6011V0.767338C20.6011 0.344209 20.193 0 19.6914 0H2.78788C2.28622 0 1.87813 0.344209 1.87813 0.767338V7.50007C1.87813 7.7051 2.0752 7.87137 2.31834 7.87137C2.56143 7.87137 2.75855 7.70515 2.75855 7.50007V0.767338C2.75855 0.753675 2.77168 0.742606 2.78788 0.742606H19.6913C19.7075 0.742606 19.7207 0.753675 19.7207 0.767338V7.50016C19.7207 7.7052 19.9177 7.87147 20.1609 7.87147C20.404 7.87147 20.6011 7.70524 20.6011 7.50016V7.07926H25.7938C25.7943 7.07926 25.7946 7.07935 25.795 7.07935C25.7954 7.07935 25.7958 7.0793 25.7962 7.0793C26.4352 7.07967 26.9777 7.43342 27.1641 7.92088H25.7953C25.5522 7.92088 25.3551 8.08711 25.3551 8.29219V9.08426C25.3551 9.72576 25.9738 10.2476 26.7344 10.2476H27.2333V11.8813H26.0823C25.7042 10.9604 24.6663 10.2971 23.4476 10.2971C22.2289 10.2971 21.191 10.9604 20.8129 11.8813H20.601V9.08421C20.601 8.87918 20.4039 8.71291 20.1608 8.71291C19.9177 8.71291 19.7205 8.87913 19.7205 9.08421V11.8812H10.5875C10.2094 10.9603 9.17157 10.297 7.95285 10.297C6.73413 10.297 5.69622 10.9603 5.31817 11.8812H2.78788C2.77168 11.8812 2.75855 11.8701 2.75855 11.8565V11.0396H4.66606C4.90915 11.0396 5.10627 10.8734 5.10627 10.6683C5.10627 10.4632 4.9092 10.297 4.66606 10.297H0.440211C0.197126 10.297 0 10.4632 0 10.6683C0 10.8734 0.197071 11.0396 0.440211 11.0396H1.87819V11.8565C1.87819 12.2796 2.28628 12.6238 2.78793 12.6238H5.16574C5.16563 12.632 5.16497 12.6402 5.16497 12.6485C5.16497 13.9451 6.41565 15 7.95285 15C9.49005 15 10.7407 13.9451 10.7407 12.6485C10.7407 12.6402 10.7401 12.632 10.74 12.6238H20.6605C20.6604 12.632 20.6597 12.6402 20.6597 12.6485C20.6597 13.9451 21.9104 15 23.4476 15C24.9848 15 26.2355 13.9451 26.2355 12.6485C26.2355 12.6402 26.2348 12.632 26.2347 12.6238H27.6735C27.9166 12.6238 28.1137 12.4576 28.1137 12.2525V8.29209C28.1138 7.3143 27.2584 6.5019 26.1457 6.35902ZM20.6011 2.32679H23.9172C24.4512 2.32679 24.8857 2.69323 24.8857 3.14364V3.16837H20.6011V2.32679ZM20.6011 6.3367V3.91093H24.5126L25.2316 6.3367H20.6011ZM7.95285 14.2575C6.90105 14.2575 6.04534 13.5358 6.04534 12.6486C6.04534 11.7614 6.90105 11.0397 7.95285 11.0397C9.00464 11.0397 9.86036 11.7614 9.86036 12.6486C9.86036 13.5358 9.00464 14.2575 7.95285 14.2575ZM23.4477 14.2575C22.3959 14.2575 21.5402 13.5358 21.5402 12.6486C21.5402 11.7614 22.3959 11.0397 23.4477 11.0397C24.4995 11.0397 25.3552 11.7614 25.3552 12.6486C25.3552 13.5358 24.4995 14.2575 23.4477 14.2575ZM27.2334 9.50502H26.7345C26.4594 9.50502 26.2356 9.31625 26.2356 9.08421V8.6634H27.2334V9.50502H27.2334Z" fill="#ADA2A6"/>
<path d="M7.95271 11.8813C7.45106 11.8813 7.04297 12.2256 7.04297 12.6487C7.04297 13.0718 7.45106 13.416 7.95271 13.416C8.45437 13.416 8.86246 13.0718 8.86246 12.6487C8.86246 12.2256 8.45437 11.8813 7.95271 11.8813Z" fill="#FFAA2F"/>
<path d="M23.4478 11.8813C22.9462 11.8813 22.5381 12.2256 22.5381 12.6487C22.5381 13.0718 22.9462 13.416 23.4478 13.416C23.9495 13.416 24.3576 13.0718 24.3576 12.6487C24.3576 12.2256 23.9495 11.8813 23.4478 11.8813Z" fill="#FFAA2F"/>
<path d="M18.2833 10.2971H11.7097C11.4667 10.2971 11.2695 10.4633 11.2695 10.6684C11.2695 10.8735 11.4666 11.0397 11.7097 11.0397H18.2833C18.5264 11.0397 18.7235 10.8735 18.7235 10.6684C18.7235 10.4633 18.5265 10.2971 18.2833 10.2971Z" fill="#ADA2A6"/>
<path d="M7.01417 8.71289H1.37966C1.13658 8.71289 0.939453 8.87911 0.939453 9.08419C0.939453 9.28927 1.13652 9.4555 1.37966 9.4555H7.01417C7.25726 9.4555 7.45438 9.28927 7.45438 9.08419C7.45438 8.87911 7.25726 8.71289 7.01417 8.71289Z" fill="#ADA2A6"/>
<path d="M15.3074 3.67317C15.1356 3.52821 14.8568 3.52821 14.6849 3.67322L10.7703 6.97502L8.73387 5.25736C8.56195 5.11235 8.28323 5.11235 8.11136 5.25736C7.93944 5.40237 7.93944 5.63741 8.11136 5.78242L10.4591 7.76264C10.545 7.83517 10.6577 7.87139 10.7703 7.87139C10.8829 7.87139 10.9957 7.83517 11.0815 7.76264L15.3074 4.19828C15.4793 4.05323 15.4793 3.81818 15.3074 3.67317Z" fill="#FFAA2F"/>
</svg>
