<svg width="35" height="35" viewBox="0 0 35 35" fill="none" xmlns="http://www.w3.org/2000/svg">
<path d="M22.7157 9.31177H12.2841C10.619 9.31177 9.2644 10.6664 9.2644 12.3314V22.763C9.2644 24.4281 10.619 25.7831 12.2841 25.7831H22.7157C24.3807 25.7831 25.7357 24.4285 25.7357 22.763V12.3314C25.7357 10.6664 24.3811 9.31177 22.7157 9.31177ZM17.4999 22.9697C14.5102 22.9697 12.0778 20.5373 12.0778 17.5472C12.0778 14.5576 14.5102 12.1252 17.4999 12.1252C20.4899 12.1252 22.9224 14.5576 22.9224 17.5472C22.9224 20.5369 20.4895 22.9697 17.4999 22.9697ZM23.0967 13.2462C22.3889 13.2462 21.8134 12.6707 21.8134 11.9633C21.8134 11.256 22.3889 10.6804 23.0967 10.6804C23.804 10.6804 24.3795 11.256 24.3795 11.9633C24.3795 12.6707 23.804 13.2462 23.0967 13.2462Z" fill="white"/>
<path d="M17.5001 14.4163C15.7742 14.4163 14.3689 15.8208 14.3689 17.5467C14.3689 19.2733 15.7742 20.6783 17.5001 20.6783C19.2267 20.6783 20.6309 19.2733 20.6309 17.5467C20.6309 15.8212 19.2263 14.4163 17.5001 14.4163Z" fill="white"/>
<path d="M17.5 0C7.8354 0 0 7.8354 0 17.5C0 27.1646 7.8354 35 17.5 35C27.1646 35 35 27.1646 35 17.5C35 7.8354 27.1646 0 17.5 0ZM28.0267 22.763C28.0267 25.6918 25.6446 28.0739 22.7158 28.0739H12.2842C9.35577 28.0739 6.97325 25.6918 6.97325 22.763V12.3314C6.97325 9.40295 9.35577 7.02043 12.2842 7.02043H22.7158C25.6446 7.02043 28.0267 9.40295 28.0267 12.3314V22.763Z" fill="white"/>
</svg>
