<svg width="15" height="15" viewBox="0 0 15 15" fill="none" xmlns="http://www.w3.org/2000/svg">
<path d="M6.838 14.142C6.66467 14.142 6.50867 14.0813 6.37 13.96C6.24867 13.8213 6.188 13.6653 6.188 13.492V8.734H1.56C1.36933 8.734 1.20467 8.67333 1.066 8.552C0.944667 8.43067 0.884 8.27467 0.884 8.084V6.186C0.884 5.99533 0.944667 5.83933 1.066 5.718C1.20467 5.57933 1.36933 5.51 1.56 5.51H6.188V0.907999C6.188 0.717332 6.24867 0.561333 6.37 0.44C6.50867 0.318666 6.66467 0.257999 6.838 0.257999H8.97C9.16067 0.257999 9.31667 0.318666 9.438 0.44C9.55933 0.561333 9.62 0.717332 9.62 0.907999V5.51H14.222C14.4127 5.51 14.5687 5.57933 14.69 5.718C14.8113 5.83933 14.872 5.99533 14.872 6.186V8.084C14.872 8.27467 14.8113 8.43067 14.69 8.552C14.5687 8.67333 14.4127 8.734 14.222 8.734H9.62V13.492C9.62 13.6653 9.55933 13.8213 9.438 13.96C9.31667 14.0813 9.16067 14.142 8.97 14.142H6.838Z" fill="#CC2C11"/>
</svg>
