<svg width="83" height="15" viewBox="0 0 83 15" fill="none" xmlns="http://www.w3.org/2000/svg">
<path d="M0.54 0.0399997H7.32C8.48 0.0399997 9.38 0.366666 10.02 1.02C10.6733 1.67333 11 2.54 11 3.62C11 4.15333 10.9267 4.60667 10.78 4.98C10.6467 5.35333 10.46 5.66 10.22 5.9C9.99333 6.14 9.72 6.32 9.4 6.44C9.09333 6.54667 8.76 6.60667 8.4 6.62V6.74C8.73333 6.74 9.08 6.8 9.44 6.92C9.81333 7.04 10.1533 7.23333 10.46 7.5C10.7667 7.75333 11.02 8.08667 11.22 8.5C11.4333 8.91333 11.54 9.42 11.54 10.02C11.54 10.5667 11.4467 11.0867 11.26 11.58C11.0867 12.06 10.84 12.48 10.52 12.84C10.2 13.2 9.82 13.4867 9.38 13.7C8.94 13.9 8.46 14 7.94 14H0.54V0.0399997ZM3.58 11.44H7.08C7.48 11.44 7.79333 11.3333 8.02 11.12C8.26 10.8933 8.38 10.58 8.38 10.18V9.5C8.38 9.1 8.26 8.79333 8.02 8.58C7.79333 8.35333 7.48 8.24 7.08 8.24H3.58V11.44ZM3.58 5.76H6.6C7 5.76 7.31333 5.64667 7.54 5.42C7.76667 5.19333 7.88 4.88 7.88 4.48V3.88C7.88 3.48 7.76667 3.16667 7.54 2.94C7.31333 2.71333 7 2.6 6.6 2.6H3.58V5.76ZM20.7598 0.0399997V8.6C20.7598 9.58667 20.9532 10.3267 21.3398 10.82C21.7265 11.3 22.3732 11.54 23.2798 11.54C24.1865 11.54 24.8332 11.3 25.2198 10.82C25.6065 10.3267 25.7998 9.58667 25.7998 8.6V0.0399997H28.7598V8.28C28.7598 9.30667 28.6598 10.2 28.4598 10.96C28.2732 11.7067 27.9598 12.3267 27.5198 12.82C27.0798 13.3 26.5132 13.66 25.8198 13.9C25.1265 14.1267 24.2798 14.24 23.2798 14.24C22.2798 14.24 21.4332 14.1267 20.7398 13.9C20.0465 13.66 19.4798 13.3 19.0398 12.82C18.5998 12.3267 18.2798 11.7067 18.0798 10.96C17.8932 10.2 17.7998 9.30667 17.7998 8.28V0.0399997H20.7598ZM38.8066 14H35.7666V0.0399997H42.3866C43.0266 0.0399997 43.6066 0.146666 44.1266 0.359999C44.6466 0.573333 45.0866 0.88 45.4466 1.28C45.8199 1.66667 46.1066 2.13333 46.3066 2.68C46.5066 3.22667 46.6066 3.83333 46.6066 4.5C46.6066 5.44667 46.3932 6.27333 45.9666 6.98C45.5532 7.68667 44.9199 8.2 44.0666 8.52L46.8066 14H43.4266L40.9866 8.88H38.8066V14ZM42.0066 6.32C42.4599 6.32 42.8132 6.20667 43.0666 5.98C43.3332 5.74 43.4666 5.39333 43.4666 4.94V4.06C43.4666 3.60667 43.3332 3.26667 43.0666 3.04C42.8132 2.8 42.4599 2.68 42.0066 2.68H38.8066V6.32H42.0066ZM75.1945 7.4L73.8545 4.6H73.7945V14H70.9345V0.0399997H74.2545L78.0745 6.64L79.4145 9.44H79.4745V0.0399997H82.3345V14H79.0145L75.1945 7.4Z" fill="black"/>
<path d="M61.8431 14L60.8431 10.68H56.1831L55.1831 14H52.1031L56.7031 0.0399997H60.4631L65.0031 14H61.8431ZM58.5431 2.8H58.4431L56.9031 8.1H60.1031L58.5431 2.8Z" fill="#CC2C11"/>
</svg>
