<svg width="39" height="35" viewBox="0 0 39 35" fill="none" xmlns="http://www.w3.org/2000/svg">
<path d="M38.0229 5.09087C37.8638 4.93181 37.7047 4.77267 37.3865 4.77267H7.15911L6.36363 0.636341C6.36363 0.318133 5.88636 1.31049e-08 5.56815 1.31049e-08H0.795407C0.318208 -7.4561e-05 0 0.318133 0 0.795407C0 1.27268 0.318208 1.59089 0.795482 1.59089H4.93188L8.75008 21.0001C9.22735 23.5455 11.6137 25.4546 14.1592 25.4546H32.4546C32.9319 25.4546 33.2501 25.1364 33.2501 24.6591C33.2501 24.1818 32.9319 23.8636 32.4546 23.8636H14.3182C13.0455 23.8636 11.7728 23.2273 11.1364 22.1136L34.3637 18.9318C34.6819 18.9318 35.0001 18.6136 35.0001 18.2955L38.1819 5.56815C38.1819 5.56815 38.1819 5.24994 38.0229 5.09087ZM33.5683 17.5L10.3409 20.5227L7.47724 6.20449H36.2728L33.5683 17.5Z" fill="#333333"/>
<path d="M13.5232 27.0454C11.2959 27.0454 9.5459 28.7954 9.5459 31.0227C9.5459 33.25 11.2959 34.9999 13.5232 34.9999C15.7505 34.9999 17.5004 33.2499 17.5004 31.0227C17.5005 28.7954 15.7505 27.0454 13.5232 27.0454ZM13.5232 33.409C12.2504 33.409 11.1368 32.2954 11.1368 31.0227C11.1368 29.75 12.2504 28.6363 13.5232 28.6363C14.7959 28.6363 15.9095 29.75 15.9095 31.0227C15.9095 32.2954 14.7959 33.409 13.5232 33.409Z" fill="#333333"/>
<path d="M29.4314 27.0454C27.2041 27.0454 25.4541 28.7954 25.4541 31.0227C25.4541 33.25 27.2041 34.9999 29.4314 34.9999C31.6587 34.9999 33.4086 33.2499 33.4086 31.0227C33.4086 28.7954 31.6586 27.0454 29.4314 27.0454ZM29.4314 33.409C28.1586 33.409 27.045 32.2954 27.045 31.0227C27.045 29.75 28.1586 28.6363 29.4314 28.6363C30.7041 28.6363 31.8177 29.75 31.8177 31.0227C31.8177 32.2954 30.704 33.409 29.4314 33.409Z" fill="#333333"/>
<circle cx="20.5" cy="12.5" r="3.5" fill="#FFAA2F"/>
</svg>
