<svg width="62" height="57" viewBox="0 0 62 57" fill="none" xmlns="http://www.w3.org/2000/svg">
<path d="M54.9643 44.7857H52.9286V31.5536C52.9286 30.9915 52.4728 30.5357 51.9107 30.5357H49.875V1.01786C49.875 0.455746 49.4193 0 48.8571 0H16.2857C15.7236 0 15.2679 0.455746 15.2679 1.01786V7.125C15.2679 7.68711 15.7236 8.14286 16.2857 8.14286H21.375V13.3767C19.7779 13.793 18.5919 15.135 18.3754 16.7712L13.6138 20.5801C13.3725 20.7733 13.232 21.0658 13.2321 21.375V25.4464C13.2321 26.0085 13.6879 26.4643 14.25 26.4643C14.8121 26.4643 15.2679 26.0085 15.2679 25.4464V21.8636L18.7469 19.0808C19.7131 21.0943 22.1287 21.9435 24.1423 20.9773C24.9719 20.5793 25.6408 19.9103 26.0388 19.0808L29.5179 21.8636V25.4464C29.5179 26.0085 29.9736 26.4643 30.5357 26.4643C31.0978 26.4643 31.5536 26.0085 31.5536 25.4464V21.375C31.5537 21.0658 31.4132 20.7733 31.1719 20.5801L26.4103 16.7712C26.1938 15.135 25.0079 13.793 23.4107 13.3767V8.14286H41.7321V30.5357H33.5893C33.0272 30.5357 32.5714 30.9915 32.5714 31.5536V44.7857H28.5V31.5536C28.5 30.9915 28.0443 30.5357 27.4821 30.5357H9.16072C8.5986 30.5357 8.14286 30.9915 8.14286 31.5536V44.7857H6.10714C2.73422 44.7857 0 47.5199 0 50.8929C0 54.2658 2.73422 57 6.10714 57H54.9643C58.3372 57 61.0714 54.2658 61.0714 50.8929C61.0714 47.5199 58.3372 44.7857 54.9643 44.7857ZM19.3393 6.10714H17.3036V2.03571H19.3393V6.10714ZM24.4286 17.3036C24.4286 18.4279 23.5172 19.3393 22.3929 19.3393C21.2685 19.3393 20.3571 18.4279 20.3571 17.3036C20.3571 16.1792 21.2685 15.2679 22.3929 15.2679C23.5172 15.2679 24.4286 16.1792 24.4286 17.3036ZM23.4107 6.10714H21.375V2.03571H23.4107V6.10714ZM25.4464 6.10714V2.03571H47.8393V6.10714H25.4464ZM47.8393 8.14286V30.5357H43.7679V8.14286H47.8393ZM40.7143 32.5714H44.7857V36.6429H40.7143V32.5714ZM34.6071 32.5714H38.6786V37.6607C38.6786 38.2228 39.1343 38.6786 39.6964 38.6786H45.8036C46.3657 38.6786 46.8214 38.2228 46.8214 37.6607V32.5714H50.8929V44.7857H34.6071V32.5714ZM16.2857 32.5714H20.3571V36.6429H16.2857V32.5714ZM10.1786 32.5714H14.25V37.6607C14.25 38.2228 14.7057 38.6786 15.2679 38.6786H21.375C21.9371 38.6786 22.3929 38.2228 22.3929 37.6607V32.5714H26.4643V44.7857H10.1786V32.5714ZM54.9643 54.9643H6.10714C3.85857 54.9643 2.03571 53.1414 2.03571 50.8929C2.03571 48.6443 3.85857 46.8214 6.10714 46.8214H54.9643C57.2129 46.8214 59.0357 48.6443 59.0357 50.8929C59.0357 53.1414 57.2129 54.9643 54.9643 54.9643Z" fill="black"/>
<path d="M6.10631 47.8392C4.41984 47.8392 3.05273 49.2063 3.05273 50.8928C3.05273 52.5793 4.41984 53.9464 6.10631 53.9464C7.79277 53.9464 9.15988 52.5793 9.15988 50.8928C9.15988 49.2063 7.79277 47.8392 6.10631 47.8392ZM6.10631 51.9107C5.54419 51.9107 5.08845 51.4549 5.08845 50.8928C5.08845 50.3307 5.54419 49.8749 6.10631 49.8749C6.66842 49.8749 7.12416 50.3307 7.12416 50.8928C7.12416 51.4549 6.66842 51.9107 6.10631 51.9107Z" fill="#CC2C11"/>
<path d="M14.2508 47.8392C12.5644 47.8392 11.1973 49.2063 11.1973 50.8928C11.1973 52.5793 12.5644 53.9464 14.2508 53.9464C15.9373 53.9464 17.3044 52.5793 17.3044 50.8928C17.3044 49.2063 15.9373 47.8392 14.2508 47.8392ZM14.2508 51.9107C13.6887 51.9107 13.233 51.4549 13.233 50.8928C13.233 50.3307 13.6887 49.8749 14.2508 49.8749C14.8129 49.8749 15.2687 50.3307 15.2687 50.8928C15.2687 51.4549 14.8129 51.9107 14.2508 51.9107Z" fill="#CC2C11"/>
<path d="M22.3934 47.8392C20.707 47.8392 19.3398 49.2063 19.3398 50.8928C19.3398 52.5793 20.707 53.9464 22.3934 53.9464C24.0799 53.9464 25.447 52.5793 25.447 50.8928C25.447 49.2063 24.0799 47.8392 22.3934 47.8392ZM22.3934 51.9107C21.8313 51.9107 21.3756 51.4549 21.3756 50.8928C21.3756 50.3307 21.8313 49.8749 22.3934 49.8749C22.9555 49.8749 23.4113 50.3307 23.4113 50.8928C23.4113 51.4549 22.9555 51.9107 22.3934 51.9107Z" fill="#CC2C11"/>
<path d="M30.535 47.8392C28.8486 47.8392 27.4814 49.2063 27.4814 50.8928C27.4814 52.5793 28.8486 53.9464 30.535 53.9464C32.2215 53.9464 33.5886 52.5793 33.5886 50.8928C33.5886 49.2063 32.2215 47.8392 30.535 47.8392ZM30.535 51.9107C29.9729 51.9107 29.5172 51.4549 29.5172 50.8928C29.5172 50.3307 29.9729 49.8749 30.535 49.8749C31.0971 49.8749 31.5529 50.3307 31.5529 50.8928C31.5529 51.4549 31.0971 51.9107 30.535 51.9107Z" fill="#CC2C11"/>
<path d="M38.6786 47.8392C36.9921 47.8392 35.625 49.2063 35.625 50.8928C35.625 52.5793 36.9921 53.9464 38.6786 53.9464C40.365 53.9464 41.7321 52.5793 41.7321 50.8928C41.7321 49.2063 40.365 47.8392 38.6786 47.8392ZM38.6786 51.9107C38.1165 51.9107 37.6607 51.4549 37.6607 50.8928C37.6607 50.3307 38.1165 49.8749 38.6786 49.8749C39.2407 49.8749 39.6964 50.3307 39.6964 50.8928C39.6964 51.4549 39.2407 51.9107 38.6786 51.9107Z" fill="#CC2C11"/>
<path d="M46.8221 47.8392C45.1357 47.8392 43.7686 49.2063 43.7686 50.8928C43.7686 52.5793 45.1357 53.9464 46.8221 53.9464C48.5086 53.9464 49.8757 52.5793 49.8757 50.8928C49.8757 49.2063 48.5086 47.8392 46.8221 47.8392ZM46.8221 51.9107C46.26 51.9107 45.8043 51.4549 45.8043 50.8928C45.8043 50.3307 46.26 49.8749 46.8221 49.8749C47.3842 49.8749 47.84 50.3307 47.84 50.8928C47.84 51.4549 47.3842 51.9107 46.8221 51.9107Z" fill="#CC2C11"/>
<path d="M54.9637 47.8392C53.2773 47.8392 51.9102 49.2063 51.9102 50.8928C51.9102 52.5793 53.2773 53.9464 54.9637 53.9464C56.6502 53.9464 58.0173 52.5793 58.0173 50.8928C58.0173 49.2063 56.6502 47.8392 54.9637 47.8392ZM54.9637 51.9107C54.4016 51.9107 53.9459 51.4549 53.9459 50.8928C53.9459 50.3307 54.4016 49.8749 54.9637 49.8749C55.5258 49.8749 55.9816 50.3307 55.9816 50.8928C55.9816 51.4549 55.5258 51.9107 54.9637 51.9107Z" fill="#CC2C11"/>
<path d="M24.4286 40.7142H22.3929C21.8307 40.7142 21.375 41.17 21.375 41.7321C21.375 42.2942 21.8307 42.7499 22.3929 42.7499H24.4286C24.9907 42.7499 25.4464 42.2942 25.4464 41.7321C25.4464 41.17 24.9907 40.7142 24.4286 40.7142Z" fill="black"/>
<path d="M48.8563 40.7142H46.8206C46.2585 40.7142 45.8027 41.17 45.8027 41.7321C45.8027 42.2942 46.2585 42.7499 46.8206 42.7499H48.8563C49.4184 42.7499 49.8742 42.2942 49.8742 41.7321C49.8742 41.17 49.4184 40.7142 48.8563 40.7142Z" fill="black"/>
</svg>
