<svg width="57" height="57" viewBox="0 0 57 57" fill="none" xmlns="http://www.w3.org/2000/svg">
<path d="M53.6998 0H11.6998C11.2027 0 10.7998 0.402897 10.7998 0.899977C10.7998 1.39706 11.2028 1.79995 11.6998 1.79995H53.6998C54.527 1.79995 55.1998 2.47282 55.1998 3.29999V32.4H50.0999C49.6028 32.4 49.1999 32.8029 49.1999 33.2999C49.1999 33.7971 49.6029 34.1999 50.0999 34.1999H55.1998V42.8999C55.1998 43.4338 54.9122 43.932 54.4493 44.1998C54.0191 44.4487 53.8719 44.9992 54.1209 45.4295C54.2876 45.7177 54.5899 45.8789 54.9007 45.8789C55.0536 45.8789 55.2086 45.84 55.3506 45.7578C56.3678 45.1693 56.9999 44.0742 56.9999 42.8999V3.29999C56.9998 1.48044 55.5195 0 53.6998 0Z" fill="black"/>
<path d="M46.7998 39.2999C46.7998 41.1194 48.2801 42.5999 50.0998 42.5999C51.9195 42.5999 53.3998 41.1194 53.3998 39.2999C53.3998 37.4803 51.9195 35.9999 50.0998 35.9999C48.2801 35.9999 46.7998 37.4803 46.7998 39.2999ZM50.0998 37.7999C50.927 37.7999 51.5998 38.4728 51.5998 39.3C51.5998 40.1271 50.927 40.8 50.0998 40.8C49.2726 40.8 48.5998 40.1271 48.5998 39.3C48.5998 38.4728 49.2726 37.7999 50.0998 37.7999Z" fill="black"/>
<path d="M19.8001 45.3C19.8001 44.8028 19.3971 44.4 18.9001 44.4H3.29999C2.47282 44.4 1.79996 43.7272 1.79996 42.9V34.2H23.7C24.1971 34.2 24.6 33.7972 24.6 33.3001C24.6 32.8029 24.197 32.4001 23.7 32.4001H1.79996V3.29999C1.79996 2.47282 2.47282 1.79995 3.29999 1.79995H8.10002C8.5971 1.79995 9 1.39706 9 0.899977C9 0.402897 8.5971 0 8.10002 0H3.29999C1.48033 0 0 1.48044 0 3.29999V42.9C0 44.7195 1.48033 46.2 3.29999 46.2H18.9C19.3971 46.2 19.8001 45.7972 19.8001 45.3Z" fill="black"/>
<path d="M50.5371 44.6119L42.5992 42.2305V39.4155C43.2429 39.1098 43.848 38.7183 44.3964 38.2478C45.864 36.9888 46.834 35.2428 47.128 33.3318L48.1283 26.8294C49.1044 26.4555 49.7992 25.5089 49.7992 24.4029C49.7992 23.7092 49.5292 23.0571 49.0386 22.5666C49.0386 22.5666 49.0386 22.5666 49.0386 22.5664L47.2859 20.8138L46.0471 17.0974C45.3307 14.9485 43.4278 13.4494 41.2097 13.2282C40.8781 12.5043 40.1464 12.0001 39.2993 12.0001H34.4993C33.6522 12.0001 32.9206 12.5043 32.5889 13.2282C30.3708 13.4494 28.4679 14.9485 27.7515 17.0974L26.5127 20.8138L24.76 22.5664C24.2694 23.057 23.9992 23.7092 23.9992 24.4029C23.9992 25.5089 24.694 26.4556 25.6702 26.8294L26.6705 33.3318C26.9645 35.2429 27.9347 36.9888 29.4021 38.2478C29.9505 38.7182 30.5556 39.1096 31.1993 39.4155V42.2305L23.2614 44.6119C20.8317 45.3408 19.1992 47.5348 19.1992 50.0715V54.9001C19.1992 56.058 20.1414 57 21.2992 57H42.8992C43.3963 57 43.7992 56.5973 43.7992 56.1001C43.7992 55.6029 43.3962 55.2001 42.8992 55.2001H28.7994V52.5001C28.7994 52.0029 28.3964 51.6001 27.8994 51.6001C27.4024 51.6001 26.9994 52.0029 26.9994 52.5001V55.2001H21.2994C21.1341 55.2001 20.9994 55.0656 20.9994 54.9001V50.0715C20.9994 48.3359 22.1164 46.8347 23.7787 46.3359L32.2314 43.8001H41.5673L50.0201 46.3359C51.6825 46.8347 52.7994 48.3359 52.7994 50.0715V54.9001C52.7994 55.0655 52.6648 55.2001 52.4994 55.2001H46.7994V52.5001C46.7994 52.0029 46.3964 51.6001 45.8994 51.6001C45.4024 51.6001 44.9994 52.0029 44.9994 52.5001V56.1001C44.9994 56.5973 45.4024 57 45.8994 57H52.4994C53.6573 57 54.5994 56.0579 54.5994 54.9001V50.0715C54.5994 47.5348 52.9669 45.3408 50.5371 44.6119ZM26.5965 25.1999C26.157 25.1999 25.7995 24.8423 25.7995 24.4028C25.7995 24.1899 25.8825 23.9898 26.0329 23.8393L27.9358 21.9364C28.0346 21.8376 28.1092 21.7171 28.1532 21.5846L29.4592 17.6668C29.9091 16.3171 31.0428 15.3422 32.3995 15.0743V18.9001C32.3995 19.3973 32.8025 19.8001 33.2995 19.8001C33.7966 19.8001 34.1995 19.3972 34.1995 18.9001V14.1C34.1995 13.9346 34.3341 13.8 34.4995 13.8H39.2995C39.4649 13.8 39.5996 13.9345 39.5996 14.1V18.9001C39.5996 19.3973 40.0026 19.8001 40.4995 19.8001C40.9965 19.8001 41.3995 19.3972 41.3995 18.9001V15.0744C42.7563 15.3424 43.8897 16.3173 44.3396 17.6669L45.6456 21.5848C45.6898 21.7173 45.7642 21.8378 45.863 21.9366L47.7658 23.8393C47.9142 23.9877 47.9994 24.1932 47.9994 24.4029C47.9994 24.8426 47.6419 25.2 47.2024 25.2V25.1999H26.5965ZM39.1225 40.2001C39.6895 40.2001 40.2516 40.1404 40.7996 40.0244V42H32.9996V40.0244C33.5475 40.1404 34.1094 40.2001 34.6766 40.2001H35.6996C36.1967 40.2001 36.5996 39.7973 36.5996 39.3001C36.5996 38.8029 36.1966 38.4001 35.6996 38.4001H34.6766C31.5447 38.4001 28.926 36.1534 28.4498 33.0579L27.5178 27.0001H46.2813L45.3493 33.0579C44.8731 36.1533 42.2544 38.4001 39.1225 38.4001C38.6254 38.4001 38.2225 38.8029 38.2225 39.3001C38.2223 39.7972 38.6253 40.2001 39.1225 40.2001Z" fill="#CC2C11"/>
<path d="M6.8996 35.9999C5.07994 35.9999 3.59961 37.4803 3.59961 39.2999C3.59961 41.1194 5.07994 42.5999 6.8996 42.5999H15.2997C17.1193 42.5999 18.5996 41.1194 18.5996 39.2999C18.5996 37.4803 17.1193 35.9999 15.2997 35.9999H6.8996ZM16.7996 39.2999C16.7996 40.127 16.1267 40.7999 15.2995 40.7999H6.8996C6.07243 40.7999 5.39956 40.127 5.39956 39.2999C5.39956 38.4727 6.07243 37.7998 6.8996 37.7998H15.2997C16.1267 37.7999 16.7996 38.4728 16.7996 39.2999Z" fill="black"/>
<path d="M17.1003 4.80005H8.70023C7.87306 4.80005 7.2002 5.47292 7.2002 6.30009V9.90011C7.2002 10.7273 7.87306 11.4001 8.70023 11.4001H12.0002V13.544L8.0297 15.5293C7.51804 15.7849 7.20031 16.2991 7.20031 16.871V17.3295C7.20031 17.9014 7.51804 18.4156 8.02948 18.6711L12.0003 20.6565V22.8H8.70023C7.87306 22.8 7.2002 23.4729 7.2002 24.3001V27.9001C7.2002 28.7273 7.87306 29.4001 8.70023 29.4001H17.1003C17.9275 29.4001 18.6003 28.7273 18.6003 27.9001V27.0001H21.3004C21.7974 27.0001 22.2003 26.5973 22.2003 26.1001C22.2003 25.603 21.7973 25.2002 21.3004 25.2002H18.6003V24.3002C18.6003 23.473 17.9275 22.8002 17.1003 22.8002H13.8003V20.6563L17.7708 18.671C18.2825 18.4154 18.6002 17.9012 18.6002 17.3293V16.8708C18.6002 16.2989 18.2825 15.7847 17.771 15.5292L13.8002 13.5438V11.4H17.1003C17.9275 11.4 18.6003 10.7272 18.6003 9.9V9.00002H48.0003V17.7C48.0003 18.1972 48.4033 18.6 48.9003 18.6C49.3974 18.6 49.8003 18.1972 49.8003 17.7V8.10004C49.8003 7.60285 49.3973 7.20006 48.9003 7.20006H18.6003V6.30009C18.6003 5.47292 17.9275 4.80005 17.1003 4.80005ZM16.8003 24.6V27.6H9.00026V24.6H16.8003ZM16.8003 17.0564V17.1439L12.9002 19.0939L9.00015 17.1439V17.0564L12.9002 15.1064L16.8003 17.0564ZM16.8003 9.60008H12.9002H9.00026V6.6H16.8003V9.60008Z" fill="black"/>
<path d="M20.3994 39.2999C20.3994 41.1194 21.8797 42.5999 23.6994 42.5999C25.5191 42.5999 26.9994 41.1194 26.9994 39.2999C26.9994 37.4803 25.5191 35.9999 23.6994 35.9999C21.8797 35.9999 20.3994 37.4803 20.3994 39.2999ZM25.1994 39.2999C25.1994 40.127 24.5266 40.7999 23.6994 40.7999C22.8722 40.7999 22.1994 40.127 22.1994 39.2999C22.1994 38.4727 22.8722 37.7998 23.6994 37.7998C24.5266 37.7998 25.1994 38.4728 25.1994 39.2999Z" fill="black"/>
</svg>
