<svg width="57" height="57" viewBox="0 0 57 57" fill="none" xmlns="http://www.w3.org/2000/svg">
<path d="M56.05 51.3H55.1001V32.3C55.1001 31.8671 54.8075 31.489 54.3886 31.3804L52.2502 30.8265V24.7H53.2001C53.7248 24.7 54.1501 24.2747 54.1501 23.7501C54.1501 23.2254 53.7248 22.8001 53.2001 22.8001H50.3501V20.9001C50.8748 20.9001 51.3001 20.4748 51.3001 19.9501C51.3001 19.4254 50.8747 19.0001 50.3501 19.0001V17.1C50.8748 17.1 51.3001 16.6746 51.3001 16.15C51.3001 15.6255 50.8747 15.2001 50.3501 15.2001V13.3C50.8748 13.3 51.3001 12.8748 51.3001 12.3501C51.3001 11.8254 50.8747 11.4001 50.3501 11.4001V9.49996C50.8748 9.49996 51.3001 9.07469 51.3001 8.55C51.3001 8.02531 50.8747 7.60004 50.3501 7.60004V5.7C50.3481 5.02424 49.9861 4.4008 49.4002 4.06414V1.90004C49.4 0.850658 48.5493 0 47.5 0H41.8C40.7507 0 39.9 0.850658 39.9 1.90004V4.06414C39.3141 4.4008 38.952 5.02424 38.95 5.7V22.8H36.1C35.5753 22.8 35.1501 23.2254 35.1501 23.75C35.1501 24.2747 35.5753 24.6999 36.1 24.6999H37.05V26.885L28.7385 24.7303C28.5827 24.6898 28.4192 24.6898 28.2634 24.7303L2.61343 31.3803C2.19372 31.4882 1.90015 31.8664 1.89993 32.2999V51.3H0.949963C0.425273 51.3 0 51.7254 0 52.25V55.1C0 56.1493 0.850658 57 1.90004 57H55.1001C56.1494 57 57.0001 56.1493 57.0001 55.1V52.25C57 51.7254 56.5747 51.3 56.05 51.3ZM41.8 1.90004H47.5V3.80007H41.8V1.90004ZM40.85 5.7H48.45V7.60004H47.5C46.9753 7.60004 46.5501 8.02531 46.5501 8.55C46.5501 9.07469 46.9753 9.49996 47.5 9.49996H48.45V11.4H47.5C46.9753 11.4 46.5501 11.8253 46.5501 12.35C46.5501 12.8747 46.9753 13.2999 47.5 13.2999H48.45V15.2H47.5C46.9753 15.2 46.5501 15.6252 46.5501 16.1499C46.5501 16.6746 46.9753 17.0999 47.5 17.0999H48.45V18.9999H47.5C46.9753 18.9999 46.5501 19.4252 46.5501 19.9499C46.5501 20.4746 46.9753 20.8999 47.5 20.8999H48.45V22.8H40.85V5.7ZM38.95 24.7H50.35V30.3336L38.95 27.3781V24.7ZM3.79996 33.0353L28.5 26.6314L53.2 33.0353V51.3H34.2V45.6C34.7247 45.6 35.15 45.1747 35.15 44.65C35.15 44.1253 34.7247 43.7001 34.2 43.7001H22.8C22.2753 43.7001 21.85 44.1255 21.85 44.65C21.85 45.1746 22.2753 45.6 22.8 45.6V51.3H3.79996V33.0353ZM32.3 45.6V51.3H29.45V45.6H32.3ZM27.55 45.6V51.3H24.7V45.6H27.55ZM55.1 55.1H1.90004V53.1999H55.1001V55.1H55.1Z" fill="black"/>
<path d="M20.9002 31.35H16.1502C15.6255 31.35 15.2002 31.7752 15.2002 32.2999C15.2002 32.8246 15.6255 33.2499 16.1502 33.2499H20.9002C21.4249 33.2499 21.8502 32.8246 21.8502 32.2999C21.8502 31.7752 21.4249 31.35 20.9002 31.35Z" fill="black"/>
<path d="M24.7 33.2502H39.8999C40.4246 33.2502 40.8499 32.8249 40.8499 32.3002C40.8499 31.7756 40.4246 31.3503 39.8999 31.3503H24.7C24.1753 31.3503 23.75 31.7756 23.75 32.3002C23.75 32.8249 24.1753 33.2502 24.7 33.2502Z" fill="black"/>
<path d="M23.7497 37.0499V39.8999C23.7497 40.9493 24.6003 41.8 25.6497 41.8H31.3497C32.3991 41.8 33.2497 40.9493 33.2497 39.8999V37.0499C33.7744 37.0499 34.1997 36.6247 34.1997 36.1C34.1997 35.5753 33.7744 35.15 33.2497 35.15H23.7498C23.2251 35.15 22.7998 35.5753 22.7998 36.1C22.7998 36.6247 23.2251 37.0499 23.7497 37.0499ZM29.4497 37.0499H31.3497V39.8999H29.4497V37.0499ZM25.6497 37.0499H27.5497V39.8999H25.6497V37.0499Z" fill="#CC2C11"/>
<path d="M17.1003 35.15H7.60035C7.07566 35.15 6.65039 35.5753 6.65039 36.1C6.65039 36.6247 7.07566 37.05 7.60035 37.05V39.8999C7.60035 40.9493 8.45101 41.8 9.50039 41.8H15.2004C16.2498 41.8 17.1004 40.9493 17.1004 39.8999V37.05C17.6251 37.05 18.0504 36.6247 18.0504 36.1C18.0504 35.5753 17.625 35.15 17.1003 35.15ZM11.4003 39.9001H9.50028V37.0501H11.4003V39.9001ZM15.2003 39.9001H13.3002V37.0501H15.2003V39.9001Z" fill="#CC2C11"/>
<path d="M38.9502 36.1C38.9502 36.6247 39.3755 37.0499 39.9002 37.0499V39.8999C39.9002 40.9493 40.7508 41.8 41.8002 41.8H47.5002C48.5496 41.8 49.4002 40.9493 49.4002 39.8999V37.0499C49.9249 37.0499 50.3502 36.6247 50.3502 36.1C50.3502 35.5753 49.9249 35.15 49.4002 35.15H39.9002C39.3755 35.1499 38.9502 35.5753 38.9502 36.1ZM45.6002 37.0499H47.5002V39.8999H45.6002V37.0499ZM41.8002 37.0499H43.7002V39.8999H41.8002V37.0499Z" fill="#CC2C11"/>
<path d="M17.1003 43.7001H7.60035C7.07566 43.7001 6.65039 44.1255 6.65039 44.65C6.65039 45.1746 7.07566 45.6 7.60035 45.6V48.45C7.60035 49.4994 8.45101 50.35 9.50039 50.35H15.2004C16.2498 50.35 17.1004 49.4994 17.1004 48.45V45.6C17.6251 45.6 18.0504 45.1747 18.0504 44.65C18.0504 44.1253 17.625 43.7001 17.1003 43.7001ZM11.4003 48.4501H9.50028V45.6001H11.4003V48.4501ZM15.2003 48.4501H13.3002V45.6001H15.2003V48.4501Z" fill="#CC2C11"/>
<path d="M49.4001 43.7001H39.9002C39.3755 43.7001 38.9502 44.1255 38.9502 44.65C38.9502 45.1746 39.3755 45.6 39.9002 45.6V48.45C39.9002 49.4994 40.7508 50.35 41.8002 50.35H47.5002C48.5496 50.35 49.4002 49.4994 49.4002 48.45V45.6C49.9249 45.6 50.3502 45.1747 50.3502 44.65C50.3502 44.1253 49.9248 43.7001 49.4001 43.7001ZM43.7001 48.4501H41.8001V45.6001H43.7001V48.4501ZM47.5002 48.4501H45.6002V45.6001H47.5002V48.4501Z" fill="#CC2C11"/>
</svg>
