<svg width="47" height="57" viewBox="0 0 47 57" fill="none" xmlns="http://www.w3.org/2000/svg">
<path d="M41.0184 26.1247C41.0184 26.1245 41.0183 26.1243 41.0183 26.124C40.8538 25.521 40.4612 25.0337 39.9412 24.7872C33.6662 21.9113 33.5088 21.4986 32.2939 21.4986C31.8222 21.4986 31.3622 21.6032 30.9267 21.8096L24.6466 24.7871C24.1265 25.0336 23.7338 25.5208 23.5691 26.1247C23.3653 26.8749 23.0234 28.4232 23.0234 30.3649C23.0234 35.5755 25.3946 40.3773 30.3963 43.9763C31.5541 44.8099 33.032 44.8106 34.1913 43.9763C39.2039 40.3691 41.5642 35.5633 41.5642 30.365C41.5642 28.4231 41.2223 26.8749 41.0184 26.1247ZM33.2093 42.6117C32.6384 43.0224 31.9507 43.0236 31.3785 42.6118C26.8236 39.3334 24.7048 35.0143 24.7048 30.3649C24.7048 28.6183 25.0099 27.2348 25.1914 26.5665C25.2323 26.4165 25.3113 26.3327 25.3668 26.3065C31.9353 23.2442 31.7057 23.1799 32.2939 23.1799C32.8781 23.1799 32.6587 23.2471 39.221 26.3065C39.2762 26.3327 39.3551 26.4163 39.3961 26.5657C39.578 27.235 39.883 28.6185 39.883 30.3651C39.8829 35.0057 37.772 39.3271 33.2093 42.6117Z" fill="#CC2C11"/>
<path d="M42.4492 0H13.1966C10.9928 0 9.19984 1.79294 9.19984 3.99669V42.1718H4.37676C1.96339 42.1718 0 44.1353 0 46.5487V51.5872C0 54.5717 2.42807 56.9997 5.41245 56.9997C18.2816 56.9997 31.3604 56.9996 40.3435 57C43.6507 57 46.3414 54.3093 46.3414 51.0021V3.89226C46.3413 1.74607 44.5952 0 42.4492 0ZM6.40516 55.2006C3.89393 55.8224 1.68139 53.9534 1.68139 51.5872V46.5487C1.68139 45.0624 2.89053 43.8532 4.37676 43.8532H9.20051C9.20051 43.8535 9.20051 43.8536 9.20051 43.8537V43.8538C9.20051 43.8539 9.20051 43.8543 9.20051 43.8546C9.20051 43.8551 9.20051 43.8558 9.20051 43.8568C9.20051 43.864 9.20051 43.8703 9.20051 43.8745C9.20051 43.8759 9.20051 43.8771 9.20051 43.8782C9.20051 43.879 9.20051 43.88 9.20051 43.8808C9.20051 43.8813 9.20051 43.8815 9.20051 43.882C9.20051 43.8823 9.20051 43.8824 9.20051 43.8827C9.20062 44.0661 9.20129 45.2627 9.20463 51.587C9.20463 53.323 8.01308 54.7859 6.40516 55.2006ZM44.66 51.0022C44.6599 53.3823 42.7236 55.3187 40.3434 55.3187H9.39233C11.205 53.4153 10.8583 51.2677 10.8859 50.1723V43.0125C10.8859 42.9826 10.8842 42.9531 10.8812 42.9241V3.99669C10.8812 2.71997 11.92 1.68128 13.1968 1.68128H42.4492C43.6682 1.68128 44.66 2.6731 44.66 3.89215V51.0022Z" fill="black"/>
<path d="M37.2438 28.9392C36.8823 28.6478 36.3532 28.7047 36.0617 29.066C30.4304 36.0141 30.7998 35.658 30.6898 35.6655C30.5814 35.6725 30.6922 35.6929 28.4499 33.5933C28.1131 33.2738 27.5811 33.2874 27.2613 33.6242C26.9416 33.9609 26.9554 34.493 27.2922 34.8128L29.4392 36.8513C29.7747 37.17 30.2223 37.3472 30.6826 37.3472C31.2157 37.3472 31.7383 37.1068 32.0861 36.6755L37.3705 30.1216C37.662 29.7599 37.6052 29.2307 37.2438 28.9392Z" fill="#CC2C11"/>
<path d="M35.7395 6.42334H14.3299C13.8657 6.42334 13.4893 6.79963 13.4893 7.26398C13.4893 7.72833 13.8657 8.10462 14.3299 8.10462H35.7393C36.2036 8.10462 36.58 7.72833 36.58 7.26398C36.58 6.79963 36.2037 6.42334 35.7395 6.42334Z" fill="black"/>
<path d="M40.7234 6.42334H39.1024C38.6381 6.42334 38.2617 6.79963 38.2617 7.26398C38.2617 7.72833 38.6381 8.10462 39.1024 8.10462H40.7234C41.1877 8.10462 41.5641 7.72833 41.5641 7.26398C41.5641 6.79963 41.1878 6.42334 40.7234 6.42334Z" fill="black"/>
<path d="M40.7236 48.7736H20.7713C20.3071 48.7736 19.9307 49.1498 19.9307 49.6142C19.9307 50.0785 20.3071 50.4548 20.7713 50.4548H40.7236C41.1878 50.4548 41.5642 50.0785 41.5642 49.6142C41.5643 49.1498 41.1879 48.7736 40.7236 48.7736Z" fill="black"/>
<path d="M17.4081 48.7736H14.3299C13.8657 48.7736 13.4893 49.1498 13.4893 49.6142C13.4893 50.0785 13.8657 50.4548 14.3299 50.4548H17.4081C17.8724 50.4548 18.2488 50.0785 18.2488 49.6142C18.2488 49.1498 17.8724 48.7736 17.4081 48.7736Z" fill="black"/>
<path d="M40.7232 12.476H14.3299C13.8657 12.476 13.4893 12.8523 13.4893 13.3167C13.4893 13.781 13.8657 14.1573 14.3299 14.1573H40.7232C41.1874 14.1573 41.5638 13.781 41.5638 13.3167C41.5639 12.8523 41.1875 12.476 40.7232 12.476Z" fill="black"/>
<path d="M40.7235 18.5286H25.367C24.9028 18.5286 24.5264 18.9049 24.5264 19.3693C24.5264 19.8336 24.9028 20.2099 25.367 20.2099H40.7235C41.1878 20.2099 41.5642 19.8336 41.5642 19.3693C41.5642 18.9049 41.1879 18.5286 40.7235 18.5286Z" fill="black"/>
<path d="M22.0039 18.5286H14.3299C13.8657 18.5286 13.4893 18.9049 13.4893 19.3693C13.4893 19.8336 13.8657 20.2099 14.3299 20.2099H22.0039C22.4681 20.2099 22.8445 19.8336 22.8445 19.3693C22.8445 18.9049 22.4681 18.5286 22.0039 18.5286Z" fill="black"/>
<path d="M20.5389 24.5811H14.3299C13.8657 24.5811 13.4893 24.9574 13.4893 25.4218C13.4893 25.8861 13.8657 26.2624 14.3299 26.2624H20.5389C21.0031 26.2624 21.3795 25.8861 21.3795 25.4218C21.3795 24.9574 21.0031 24.5811 20.5389 24.5811Z" fill="black"/>
<path d="M20.5389 30.6339H14.3299C13.8657 30.6339 13.4893 31.0102 13.4893 31.4746C13.4893 31.9389 13.8657 32.3152 14.3299 32.3152H20.5389C21.0031 32.3152 21.3795 31.9389 21.3795 31.4746C21.3795 31.0102 21.0031 30.6339 20.5389 30.6339Z" fill="black"/>
<path d="M21.9961 36.6865H14.3299C13.8657 36.6865 13.4893 37.0628 13.4893 37.5272C13.4893 37.9915 13.8657 38.3678 14.3299 38.3678H21.9961C22.4603 38.3678 22.8367 37.9915 22.8367 37.5272C22.8367 37.0628 22.4604 36.6865 21.9961 36.6865Z" fill="black"/>
<path d="M24.7139 42.7391H14.3299C13.8657 42.7391 13.4893 43.1154 13.4893 43.5798C13.4893 44.0441 13.8657 44.4204 14.3299 44.4204H24.7139C25.1782 44.4204 25.5546 44.0441 25.5546 43.5798C25.5547 43.1154 25.1783 42.7391 24.7139 42.7391Z" fill="black"/>
</svg>
