<svg width="57" height="52" viewBox="0 0 57 52" fill="none" xmlns="http://www.w3.org/2000/svg">
<path d="M49.5421 51.4067H7.45798C3.3454 51.4067 0 48.0613 0 43.9487V13.2282C0 9.11576 3.3454 5.77026 7.45798 5.77026H10.5669C11.155 5.77026 11.6323 6.24759 11.6323 6.83566V9.76558C11.6323 10.6478 12.3504 11.3637 13.2304 11.3637C14.1105 11.3637 14.8286 10.6478 14.8286 9.76558V6.83566C14.8286 6.24759 15.3059 5.77026 15.894 5.77026H41.4641C42.0522 5.77026 42.5295 6.24759 42.5295 6.83566V9.76558C42.5295 10.6478 43.2476 11.3637 44.1277 11.3637C45.0077 11.3637 45.7258 10.6478 45.7258 9.76558V6.83566C45.7258 6.24759 46.203 5.77026 46.7911 5.77026H49.542C53.6546 5.77026 57 9.11567 57 13.2282V43.9487C57.0001 48.0613 53.6547 51.4067 49.5421 51.4067ZM7.45798 7.90115C4.51959 7.90115 2.13089 10.292 2.13089 13.2282V43.9487C2.13089 46.8849 4.51959 49.2758 7.45798 49.2758H49.5421C52.4806 49.2758 54.8692 46.8849 54.8692 43.9487V13.2282C54.8692 10.292 52.4806 7.90115 49.5421 7.90115H47.8566V9.76567C47.8566 11.822 46.184 13.4946 44.1277 13.4946C42.0714 13.4946 40.3987 11.822 40.3987 9.76567V7.90115H16.9594V9.76567C16.9594 11.822 15.2867 13.4946 13.2304 13.4946C11.1742 13.4946 9.50141 11.822 9.50141 9.76567V7.90115H7.45798Z" fill="black"/>
<path d="M15.8935 7.90112C15.3054 7.90112 14.8281 7.4238 14.8281 6.83573V3.72894C14.8281 2.84674 14.11 2.1308 13.2299 2.1308C12.3499 2.1308 11.6318 2.84674 11.6318 3.72894V6.83573C11.6318 7.4238 11.1544 7.90112 10.5664 7.90112C9.97831 7.90112 9.50098 7.4238 9.50098 6.83573V3.72894C9.50098 1.67265 11.1737 0 13.23 0C15.2863 0 16.959 1.67265 16.959 3.72894V6.83573C16.9589 7.42603 16.4815 7.90112 15.8935 7.90112Z" fill="black"/>
<path d="M13.23 13.4946C11.1737 13.4946 9.50098 11.822 9.50098 9.7657V6.83578C9.50098 6.24771 9.97831 5.77039 10.5664 5.77039C11.1544 5.77039 11.6318 6.24771 11.6318 6.83578V9.7657C11.6318 10.6479 12.3499 11.3638 13.2299 11.3638C14.11 11.3638 14.8281 10.6479 14.8281 9.7657V6.83578C14.8281 6.24771 15.3054 5.77039 15.8935 5.77039C16.4815 5.77039 16.9589 6.24771 16.9589 6.83578V9.7657C16.959 11.822 15.2862 13.4946 13.23 13.4946Z" fill="black"/>
<path d="M46.7907 7.90112C46.2027 7.90112 45.7254 7.4238 45.7254 6.83573V3.72894C45.7254 2.84674 45.0073 2.1308 44.1273 2.1308C43.2472 2.1308 42.5291 2.84674 42.5291 3.72894V6.83573C42.5291 7.4238 42.0518 7.90112 41.4637 7.90112C40.8757 7.90112 40.3984 7.4238 40.3984 6.83573V3.72894C40.3984 1.67265 42.0711 0 44.1274 0C46.1837 0 47.8563 1.67265 47.8563 3.72894V6.83573C47.8561 7.42603 47.3788 7.90112 46.7907 7.90112Z" fill="black"/>
<path d="M44.1274 13.4946C42.0711 13.4946 40.3984 11.822 40.3984 9.7657V6.83578C40.3984 6.24771 40.8757 5.77039 41.4637 5.77039C42.0518 5.77039 42.5291 6.24771 42.5291 6.83578V9.7657C42.5291 10.6479 43.2472 11.3638 44.1273 11.3638C45.0073 11.3638 45.7254 10.6479 45.7254 9.7657V6.83578C45.7254 6.24771 46.2027 5.77039 46.7907 5.77039C47.3788 5.77039 47.8561 6.24771 47.8561 6.83578V9.7657C47.8563 11.822 46.1837 13.4946 44.1274 13.4946Z" fill="black"/>
<path d="M55.7815 22.1971H1.7988C1.21073 22.1971 0.733398 21.7198 0.733398 21.1317C0.733398 20.5436 1.21073 20.0663 1.7988 20.0663H55.7816C56.3697 20.0663 56.847 20.5436 56.847 21.1317C56.847 21.7198 56.3697 22.1971 55.7815 22.1971Z" fill="black"/>
<path d="M27.4817 45.33C27.2958 45.4156 26.8003 45.4847 26.3829 45.4847H16.8573C16.4372 45.4847 15.9416 45.4156 15.7585 45.33C15.5754 45.2443 15.4219 44.4403 15.4219 44.0092V43.1886C15.4219 42.7577 15.438 42.3238 15.4595 42.2244C15.4811 42.125 15.8715 41.6664 16.1732 41.3652L21.5488 35.9913C21.8504 35.6902 22.3406 35.1984 22.6396 34.8945C22.6396 34.8945 22.8389 34.6927 23.1432 34.3612C23.4178 34.0572 23.6494 33.756 23.8353 33.4605C23.9997 33.1924 24.1208 32.9161 24.1961 32.6455C24.2796 32.3581 24.32 32.0321 24.32 31.6646C24.32 31.3082 24.258 30.9822 24.1368 30.7003C24.0157 30.4297 23.8513 30.1976 23.6359 30.0069C23.4178 29.808 23.1539 29.6532 22.8603 29.5427C22.5587 29.4266 22.222 29.3714 21.8638 29.3714C21.1581 29.3714 20.598 29.5675 20.151 29.9681C19.6985 30.3798 19.413 30.9241 19.2783 31.6231C19.211 31.9685 19.211 31.9685 19.211 31.9685C18.8528 32.0845 18.2173 32.1453 17.7971 32.1094L17.1131 32.0485C16.6957 32.0099 16.1921 31.9298 15.9981 31.869C15.9981 31.869 15.9981 31.869 15.8823 31.717C15.7664 31.565 15.7179 31.3717 15.7476 31.1837C15.8715 30.3936 16.1139 29.6724 16.4747 29.0426C16.8356 28.4125 17.2934 27.8794 17.8348 27.4595C18.3789 27.045 18.9902 26.7301 19.6554 26.5202C21.0073 26.0918 22.6232 26.0947 24.0102 26.5449C24.7185 26.777 25.3488 27.1224 25.89 27.5755C26.4394 28.0369 26.8811 28.6171 27.207 29.3023C27.5357 29.9931 27.7026 30.7888 27.7026 31.6702C27.7026 32.4327 27.5975 33.1427 27.3902 33.781C27.1882 34.3973 26.9054 34.9773 26.5527 35.5078C26.208 36.0245 25.8228 36.5054 25.4135 36.9418C25.0122 37.3702 24.6918 37.6823 24.6918 37.6823C24.3875 37.9807 23.8892 38.4643 23.5822 38.7599L20.6009 41.6361C20.2939 41.9317 20.3882 42.172 20.8083 42.172H26.3857C26.8059 42.172 27.3014 42.241 27.4845 42.3267C27.6676 42.4123 27.8211 43.2163 27.8211 43.6474V44.0204C27.8183 44.443 27.6675 45.247 27.4817 45.33ZM16.7684 43.4014C16.7684 43.7882 17.1131 44.1033 17.5306 44.1033H25.7097C26.1298 44.1033 26.4719 43.979 26.4719 43.8242C26.4719 43.6694 26.1271 43.545 25.7097 43.545H19.1572C18.7371 43.545 18.0907 43.4068 17.7218 43.2356C17.7218 43.2356 17.7218 43.2356 17.7218 42.8542C17.7218 42.6636 17.7218 42.6636 17.7218 42.6636C17.8403 42.4647 18.185 42.0585 18.492 41.7656L22.6663 37.7427C22.9733 37.4472 23.4716 36.9637 23.7759 36.6653C23.7759 36.6653 24.0586 36.386 24.4438 35.9745C24.8127 35.5877 25.136 35.176 25.443 34.7173C25.723 34.2946 25.9492 33.8304 26.1109 33.3359C26.2752 32.8414 26.356 32.2777 26.356 31.6672C26.356 30.9957 26.2348 30.4046 25.9977 29.9073C25.7581 29.4016 25.4349 28.9788 25.0417 28.6445C24.627 28.2993 24.1556 28.0423 23.6008 27.8599C22.4778 27.4924 21.1366 27.4924 20.0567 27.8378C19.5368 28.0035 19.0602 28.2467 18.6455 28.5645C18.2496 28.8711 17.9103 29.2664 17.6409 29.7388C17.4766 30.0261 17.4766 30.0261 17.4766 30.0261C17.35 30.3825 17.4416 30.6948 17.6813 30.7169C17.9211 30.739 18.263 30.4378 18.4435 30.0483C18.4435 30.0483 18.7317 29.4238 19.2622 28.9403C19.9571 28.3104 20.8323 27.9954 21.8665 27.9954C22.3809 27.9954 22.8738 28.0811 23.3235 28.2495C23.776 28.4181 24.1826 28.6612 24.5301 28.9763C24.8829 29.294 25.1629 29.6864 25.3676 30.1366C25.5696 30.6064 25.6692 31.1174 25.6692 31.6701C25.6692 32.1784 25.6127 32.6233 25.4969 33.0349C25.3892 33.4273 25.2141 33.8279 24.9717 34.2175C24.7429 34.5766 24.4682 34.9386 24.1342 35.3116C23.8138 35.6624 23.5821 35.9001 23.5821 35.9001C23.2831 36.2013 22.7931 36.6958 22.4914 36.997L17.3232 42.1609C17.0135 42.4538 16.7684 43.0146 16.7684 43.4014Z" fill="#CC2C11"/>
<path d="M35.3214 45.7169C34.9039 45.7528 34.22 45.7416 33.8025 45.6865C33.8025 45.6865 31.9227 45.4461 31.0097 44.7857C30.1209 44.1447 29.4072 43.2716 28.8901 42.1885C28.8067 42.0146 28.7986 41.8128 28.8686 41.6304C28.9359 41.4509 28.9359 41.4509 28.9359 41.4509C29.1108 41.3348 29.5742 41.1138 29.9673 40.9619L30.576 40.7242C30.9692 40.5722 31.6076 40.459 31.998 40.4755C31.998 40.4755 31.998 40.4755 32.1461 40.8099C32.3832 41.3541 32.736 41.7989 33.1938 42.1305C33.9613 42.6943 35.0709 42.7495 35.9085 42.382C36.272 42.2273 36.5871 42.0063 36.8538 41.7216C37.1204 41.4315 37.3385 41.0751 37.4974 40.6607C37.6644 40.2435 37.7451 39.7683 37.7451 39.2516C37.7451 38.7073 37.6536 38.2266 37.4731 37.8232C37.298 37.4171 37.0556 37.0745 36.7459 36.7982C36.4415 36.5246 36.0672 36.312 35.6337 36.1655C34.7557 35.87 33.6945 35.8395 32.5877 36.2152C32.0275 36.4031 31.505 36.6462 31.0284 36.9364C30.821 37.0635 30.5571 37.0663 30.3442 36.9391C30.1342 36.8119 30.1342 36.8119 30.1342 36.8119C30.0669 36.5467 30.0184 35.9748 30.0238 35.5438L30.1639 27.9595C30.1719 27.5286 30.2474 27.0229 30.3308 26.8378C30.4143 26.6527 31.1926 26.498 31.6129 26.498H39.0755C39.4956 26.498 39.9912 26.5671 40.177 26.6527C40.3628 26.7383 40.5136 27.5424 40.5136 27.9734V28.3464C40.5136 28.7775 40.4463 29.2859 40.3629 29.4738C40.2794 29.6617 39.4984 29.819 39.0782 29.819H34.2656C33.8454 29.819 33.4952 30.1728 33.4899 30.601L33.4657 32.1261C33.4603 32.5571 33.5411 32.8915 33.6489 32.8722C33.6489 32.8722 33.6489 32.8722 33.7486 32.8583C35.1947 32.6511 36.4121 32.792 37.4732 33.2535C38.2273 33.5794 38.8871 34.0436 39.4366 34.6321C39.9805 35.2234 40.4033 35.9196 40.6942 36.7043C40.9798 37.4889 41.1252 38.3426 41.1252 39.2462C41.1252 40.2104 40.9555 41.1084 40.6188 41.9152C40.2929 42.7165 39.8243 43.4127 39.2237 43.9874C38.6474 44.5484 37.9445 44.993 37.1446 45.3109C36.3502 45.6256 35.3214 45.7169 35.3214 45.7169ZM30.8426 42.1001C30.6352 42.1802 30.6811 42.5228 30.9424 42.8598C30.9424 42.8598 31.2683 43.2826 31.788 43.6583C32.4695 44.1529 33.404 44.4043 34.562 44.4043C35.3161 44.4043 36.0243 44.2773 36.6626 44.0286C37.2981 43.7772 37.8503 43.429 38.3 42.9897C38.7633 42.5477 39.1241 42.0089 39.3772 41.3845C39.644 40.7462 39.7759 40.0307 39.7759 39.2542C39.7759 38.5165 39.6601 37.823 39.4284 37.1958C39.205 36.5851 38.8791 36.0437 38.4562 35.5879C38.0415 35.1375 37.5324 34.781 36.9481 34.5296C36.1077 34.1649 35.1221 34.0572 33.9371 34.2285C33.6139 34.2755 33.3204 34.3667 33.0645 34.4965C32.8545 34.6015 32.604 34.5932 32.4074 34.4634C32.2081 34.3363 32.2081 34.3363 32.2081 34.3363C32.1435 34.0794 32.0977 33.5157 32.1058 33.0874L32.1543 29.9046C32.1596 29.4737 32.2351 28.968 32.3187 28.78C32.4021 28.5921 33.1832 28.4403 33.6033 28.4403H38.4051C38.8253 28.4403 39.1699 28.316 39.1699 28.1612C39.1699 28.0064 38.8253 27.882 38.4051 27.882H32.2756C31.8555 27.882 31.5053 28.2357 31.4973 28.6639L31.3923 34.422C31.3841 34.8529 31.6131 35.1099 31.8986 34.9912C31.8986 34.9912 31.8986 34.9912 32.1679 34.8999C33.5494 34.4358 34.9095 34.4634 36.0541 34.8502C36.66 35.0546 37.1905 35.3587 37.635 35.7564C38.0875 36.1626 38.4483 36.6682 38.7015 37.2512C38.96 37.8287 39.092 38.5028 39.092 39.2488C39.092 39.9423 38.9763 40.5889 38.75 41.1718C38.5238 41.7437 38.2168 42.2465 37.8316 42.6693C37.433 43.0975 36.9617 43.4263 36.4285 43.6529C35.1815 44.1944 33.5549 44.0895 32.4131 43.2523C31.9309 42.9015 31.6833 42.5699 31.6833 42.5699C31.427 42.2327 31.0474 42.0173 30.8426 42.1001Z" fill="#CC2C11"/>
</svg>
