<svg width="46" height="57" viewBox="0 0 46 57" fill="none" xmlns="http://www.w3.org/2000/svg">
<path d="M38.6261 19.3377C38.1188 15.5514 36.2537 12.0682 33.3742 9.52944C30.4683 6.96756 26.7325 5.5567 22.8546 5.5567C18.9774 5.5567 15.242 6.96712 12.3365 9.52821C9.4572 12.066 7.59179 15.5485 7.08369 19.3339C7.02235 19.7908 7.34309 20.211 7.80009 20.2724C8.2562 20.3345 8.67724 20.013 8.73858 19.556C9.68208 12.5269 15.7506 7.22651 22.8546 7.22651C29.9604 7.22651 36.0291 12.5285 36.9711 19.5594C37.0273 19.9788 37.3857 20.2835 37.7976 20.2835C37.8346 20.2835 37.8719 20.281 37.9095 20.276C38.3665 20.2148 38.6873 19.7947 38.6261 19.3377Z" fill="black"/>
<path d="M37.9201 22.5124C37.4619 22.4558 37.0456 22.7808 36.989 23.2384C36.1087 30.3502 30.0321 35.7132 22.8542 35.7132C15.6711 35.7132 9.59396 30.3459 8.71826 23.2282C8.66192 22.7707 8.24611 22.4452 7.78767 22.5016C7.33 22.5579 7.0047 22.9745 7.06103 23.4322C8.0396 31.3855 14.8292 37.383 22.8543 37.383C30.8735 37.383 37.6625 31.3904 38.6461 23.4435C38.7028 22.9859 38.3777 22.5691 37.9201 22.5124Z" fill="black"/>
<path d="M27.6853 26.7351H25.8138V12.414C25.8138 11.8208 25.3312 11.3382 24.738 11.3382H21.9227C21.6701 11.3382 21.4244 11.4276 21.2311 11.5899L16.1163 15.8822C15.67 16.2569 15.6014 16.9098 15.9602 17.3688L17.6377 19.5156C17.8156 19.7432 18.0823 19.8916 18.3695 19.9228C18.6569 19.9539 18.9489 19.8661 19.1715 19.6819L20.337 18.7169V26.735H17.9742V26.7351C17.381 26.7351 16.8984 27.2179 16.8984 27.811V30.3642C16.8984 30.9575 17.381 31.4401 17.9742 31.4401H27.6853C28.2785 31.4401 28.7611 30.9574 28.7611 30.3642V27.811C28.7611 27.2178 28.2785 26.7351 27.6853 26.7351ZM27.0914 29.7705H18.5683V28.4051H20.931C21.5243 28.4051 22.0069 27.9225 22.0069 27.3292V17.4542C22.0068 17.0329 21.7701 16.6599 21.3889 16.4806C21.0076 16.3013 20.5694 16.3567 20.2448 16.6255L18.5772 18.0062L17.629 16.7928L22.1389 13.0081H24.1441V27.3292C24.1441 27.9225 24.6268 28.4051 25.22 28.4051H27.0914V29.7705Z" fill="#CC2C11"/>
<path d="M45.4967 47.7708L37.9743 36.0042C38.821 35.8288 39.5845 35.3505 40.1103 34.6543C40.7165 33.8516 40.9583 32.824 40.7736 31.8353C40.6173 30.9984 41.0405 30.1486 41.8026 29.7689C42.7029 29.3204 43.3771 28.5083 43.6524 27.5409C43.9276 26.5734 43.782 25.5279 43.2527 24.6726C42.8046 23.9486 42.8922 23.0035 43.4656 22.3741C44.1431 21.6307 44.4785 20.6298 44.3856 19.6283C44.2928 18.6267 43.7794 17.7046 42.9767 17.0982C42.2972 16.585 42.0375 15.672 42.345 14.8779C42.7082 13.9398 42.6593 12.8855 42.211 11.985C41.7626 11.0846 40.9506 10.4103 39.9832 10.1347C39.1643 9.90151 38.5921 9.14403 38.592 8.29259C38.5918 7.28675 38.1653 6.3212 37.422 5.64355C36.6786 4.96589 35.6777 4.63046 34.6763 4.72298C33.8282 4.80157 33.0214 4.3016 32.7136 3.50772C32.35 2.56978 31.6035 1.82355 30.6656 1.46018C29.7277 1.09691 28.6733 1.14545 27.7728 1.59366C27.0106 1.97295 26.0773 1.79861 25.5036 1.1695C24.826 0.426275 23.8603 0 22.8545 0C21.8486 0 20.8831 0.426275 20.2052 1.16939C19.6315 1.79839 18.6982 1.97295 17.936 1.59355C17.0355 1.14534 15.9812 1.0968 15.0433 1.46007C14.1053 1.82344 13.3589 2.56967 12.9953 3.50761C12.6876 4.30149 11.8795 4.80124 11.0327 4.72286C10.0309 4.63024 9.03035 4.96567 8.28701 5.64344C7.54367 6.32109 7.11718 7.28663 7.11695 8.29248C7.11684 9.14392 6.54473 9.9015 5.7258 10.1346C4.75836 10.4101 3.94633 11.0845 3.49802 11.9849C3.0497 12.8853 3.00083 13.9397 3.36398 14.8778C3.67136 15.6717 3.41163 16.5849 2.7323 17.0981C1.92974 17.7045 1.41619 18.6266 1.32334 19.6282C1.2306 20.6297 1.56592 21.6306 2.24335 22.374C2.8168 23.0034 2.90442 23.9485 2.45632 24.6726C1.92696 25.5279 1.78134 26.5734 2.05654 27.5409C2.33186 28.5083 3.00606 29.3204 3.90637 29.7689C4.66852 30.1486 5.09168 30.9984 4.93537 31.8353C4.75068 32.8241 4.99248 33.8516 5.59866 34.6543C6.12447 35.3504 6.88795 35.8288 7.73471 36.0042L0.212285 47.7708C-0.0645872 48.204 -0.0710442 48.7462 0.195363 49.1858C0.461771 49.6254 0.946381 49.8703 1.45749 49.8255L8.79934 49.1794L11.2945 56.1144C11.4686 56.5981 11.894 56.9342 12.4049 56.9914C12.456 56.9971 12.5069 57 12.5574 57C13.0115 57 13.4328 56.7719 13.682 56.3822L22.8545 42.0345L32.0269 56.382C32.2761 56.7718 32.6972 56.9998 33.1514 56.9998C33.202 56.9998 33.253 56.997 33.3041 56.9912C33.8149 56.9339 34.2403 56.5979 34.4144 56.1141L36.9098 49.1791L44.2515 49.8251C44.7637 49.87 45.2473 49.6251 45.5137 49.1856C45.78 48.746 45.7736 48.2039 45.4967 47.7708ZM1.98173 48.103L9.31579 36.631C9.57675 36.8963 9.76288 37.2365 9.83447 37.6188C9.96929 38.3393 10.3235 38.9965 10.8364 39.5054L5.61347 47.7834L1.98173 48.103ZM10.6013 49.2555L10.2841 48.3739C10.0785 47.8024 9.5124 47.4399 8.90711 47.4936L7.70387 47.5995L12.264 40.372C12.9316 40.5856 13.6548 40.6027 14.3395 40.408C14.9173 40.2437 15.5273 40.3671 15.9944 40.7076L10.6013 49.2555ZM12.6378 54.9155L11.3184 51.2482L17.1424 42.0175C17.6281 42.4541 18.2286 42.7564 18.8812 42.8784C19.3736 42.9703 19.8757 42.9565 20.3547 42.8448L12.6378 54.9155ZM23.3747 40.202C23.3213 40.1902 23.2667 40.1838 23.212 40.1826C23.0931 40.1708 22.9739 40.1628 22.8545 40.1628C22.7351 40.1628 22.6161 40.1708 22.4972 40.1826C22.4421 40.1837 22.3875 40.1902 22.3338 40.202C21.7509 40.2866 21.1848 40.5126 20.6942 40.883C20.259 41.2114 19.7239 41.3369 19.1879 41.237C18.6519 41.1368 18.1985 40.8263 17.9113 40.3626C17.8505 40.2645 17.7843 40.1712 17.7153 40.0807C17.7047 40.0669 17.694 40.0532 17.6824 40.0401C16.7941 38.9101 15.2872 38.4026 13.8826 38.8019C13.3581 38.9511 12.8138 38.8752 12.3501 38.588C11.8865 38.3009 11.5759 37.8476 11.4756 37.3116C11.2617 36.1688 10.5038 35.2248 9.49392 34.7394C9.44226 34.7093 9.38882 34.6852 9.33405 34.6672C9.0043 34.5281 8.65139 34.4351 8.28267 34.4009C7.73972 34.3505 7.25968 34.083 6.93104 33.6479C6.6024 33.2127 6.47648 32.6777 6.57668 32.1416C6.86914 30.5751 6.07726 28.9848 4.65082 28.2742C4.16276 28.031 3.81174 27.6082 3.66245 27.0837C3.51327 26.5592 3.58908 26.0149 3.87609 25.5512C4.71483 24.1962 4.55085 22.4271 3.47742 21.2492C3.11004 20.8462 2.93559 20.325 2.9858 19.7821C3.03612 19.239 3.30342 18.759 3.7386 18.4302C5.01007 17.4696 5.49635 15.7608 4.9209 14.2747C4.72396 13.7661 4.74945 13.2173 4.99259 12.7291C5.23562 12.2409 5.65834 11.8898 6.18291 11.7405C7.71556 11.304 8.7862 9.88625 8.78654 8.2927C8.78665 7.74731 9.00864 7.24478 9.41164 6.87728C9.81465 6.5099 10.3357 6.335 10.8787 6.38544C12.4661 6.5325 13.976 5.5969 14.552 4.11101C14.7491 3.60257 15.1378 3.21393 15.6463 3.01699C16.1548 2.82005 16.7038 2.84532 17.1919 3.08835C18.6187 3.79829 20.365 3.47187 21.4388 2.29447C21.8063 1.89157 22.309 1.6697 22.8544 1.6697C23.3998 1.6697 23.9024 1.89157 24.2699 2.29447C25.3437 3.47187 27.0902 3.79829 28.5168 3.08835C29.005 2.84543 29.5539 2.82005 30.0624 3.01699C30.571 3.21393 30.9596 3.60257 31.1567 4.11101C31.7327 5.59679 33.2423 6.53228 34.83 6.38544C35.3728 6.335 35.8939 6.5099 36.297 6.87728C36.7 7.24478 36.922 7.74731 36.9221 8.2927C36.9223 9.88625 37.993 11.304 39.5257 11.7405C40.0502 11.8898 40.4729 12.2409 40.7159 12.7291C40.9591 13.2173 40.9845 13.7661 40.7875 14.2747C40.2121 15.7608 40.6983 17.4696 41.9698 18.4302C42.405 18.759 42.6723 19.239 42.7226 19.7821C42.7729 20.3251 42.5984 20.8462 42.231 21.2492C41.1576 22.4271 40.9937 24.1961 41.8323 25.5511C42.1193 26.0149 42.1952 26.5591 42.0459 27.0836C41.8967 27.6082 41.5457 28.0309 41.0575 28.2741C39.6312 28.9847 38.8393 30.5751 39.1317 32.1415C39.2318 32.6776 39.106 33.2125 38.7774 33.6477C38.4487 34.0829 37.9687 34.3503 37.4256 34.4008C37.0566 34.4351 36.7035 34.5282 36.3734 34.6675C36.319 34.6854 36.2659 34.7094 36.2147 34.7392C35.2048 35.2245 34.4466 36.1685 34.2328 37.3114C34.1325 37.8475 33.8218 38.3008 33.3582 38.5879C32.8945 38.875 32.3501 38.9509 31.8257 38.8019C30.4208 38.4023 28.9136 38.9102 28.0254 40.0406C28.0143 40.0533 28.0041 40.0666 27.9938 40.0798C27.9246 40.1706 27.8581 40.2641 27.7971 40.3625C27.51 40.8262 27.0566 41.1367 26.5205 41.2369C25.9847 41.3368 25.4495 41.2114 25.0142 40.8828C24.5238 40.5125 23.9579 40.2866 23.3747 40.202ZM33.0712 54.9155L25.3534 42.8432C25.621 42.9058 25.8954 42.9391 26.1716 42.9391C26.3903 42.9391 26.61 42.919 26.8278 42.8784C27.4804 42.7564 28.0808 42.4542 28.5665 42.0176L34.3906 51.2486L33.0712 54.9155ZM36.8019 47.4936C36.196 47.4403 35.6305 47.8023 35.4249 48.374L35.1076 49.2559L29.7144 40.7079C30.1815 40.3673 30.7916 40.2438 31.3696 40.4082C32.0541 40.6029 32.7773 40.5857 33.4449 40.3722L38.0048 47.5995L36.8019 47.4936ZM40.0952 47.7834L34.8724 39.5056C35.3854 38.9967 35.7397 38.3394 35.8746 37.6188C35.9462 37.2365 36.1322 36.8963 36.3932 36.6311L43.7272 48.103L40.0952 47.7834Z" fill="black"/>
</svg>
