<svg width="88" height="100" viewBox="0 0 88 100" fill="none" xmlns="http://www.w3.org/2000/svg">
<path d="M74.2246 42.3457H10.1215C5.18793 42.3548 0.978212 45.9311 0.151831 50.8147H7.44255e-06V52.5086C-0.000414288 52.8554 0.0170878 53.202 0.0523023 53.5469C0.506928 68.8261 10.623 82.1096 25.1891 86.5541L21.9958 97.7807C21.7069 98.6702 22.1908 99.6261 23.0767 99.9162C23.9625 100.206 24.9146 99.7203 25.2035 98.8309C25.2165 98.7906 25.2281 98.75 25.238 98.7089L26.3346 94.8538H58.0116L59.1081 98.7055C59.3145 99.4328 59.976 99.9346 60.7292 99.9352C60.8861 99.9344 61.0419 99.9128 61.1931 99.8708C62.0882 99.6132 62.6061 98.6763 62.3503 97.7773L59.157 86.5541C73.7215 82.1094 83.8365 68.8278 84.2921 53.5503C84.3282 53.2043 84.3461 52.8564 84.3461 52.5086V50.8147H84.1943C83.3679 45.9309 79.1582 42.3548 74.2246 42.3457ZM74.0694 45.7333H74.2246C77.292 45.745 79.9658 47.8324 80.7327 50.8147H73.0977L74.0694 45.7333ZM64.1537 45.7333H70.6348L69.6699 50.8147H63.1837L64.1537 45.7333ZM62.5426 54.2024H69.0221L68.0521 59.2838H61.5727L62.5426 54.2024ZM54.2396 45.7333H60.7191L59.7558 50.8147H53.2679L54.2396 45.7333ZM52.6286 54.2024H59.1081L58.1364 59.2838H51.6502L52.6286 54.2024ZM44.3239 45.7333H50.805L49.8401 50.8147H43.3539L44.3239 45.7333ZM42.7129 54.2024H49.1923L48.2224 59.2838H41.7361L42.7129 54.2024ZM34.4098 45.7333H40.8893L39.9261 50.8147H33.4382L34.4098 45.7333ZM32.7971 54.2024H39.2716L38.3016 59.2838H31.8204L32.7971 54.2024ZM24.4941 45.7333H30.9736L30.0104 50.8147H23.5241L24.4941 45.7333ZM22.8831 54.2024H29.3525L28.3825 59.2838H21.9047L22.8831 54.2024ZM14.5801 45.7333H21.0595L20.0946 50.8147H13.6084L14.5801 45.7333ZM12.9674 54.2024H19.4485L18.4769 59.2838H11.9906L12.9674 54.2024ZM10.1215 45.7333H11.1438L10.1738 50.8147H3.61339C4.38031 47.8324 7.05408 45.7448 10.1215 45.7333ZM9.52606 54.2024L8.5915 59.0924C6.15791 58.5146 4.2422 56.6328 3.61339 54.2024H9.52606ZM27.2995 91.4662L28.2627 88.0786H56.0834L57.0467 91.4662H27.2995ZM48.9207 84.6909H35.4254C20.9807 84.6672 8.3315 74.9572 4.52096 60.9674C6.07461 62.0055 7.88531 62.5891 9.75042 62.6528C9.81747 62.6632 9.88516 62.6693 9.95285 62.6714C9.96634 62.6714 9.97815 62.6714 9.99165 62.6714C10.0355 62.6714 10.0794 62.6714 10.1232 62.6714H74.2246C76.2183 62.6725 78.1673 62.0794 79.8252 60.9674C76.0146 74.9572 63.3654 84.6672 48.9207 84.6909ZM74.2246 59.2838H71.48L72.4584 54.2024H80.7395C79.9719 57.1871 77.2946 59.2753 74.2246 59.2838Z" fill="black"/>
<path d="M86.0326 28.7951H70.8503V22.0199H60.7288V28.7951H57.1863C56.2593 24.2113 51.8071 21.2501 47.2419 22.1808C43.9226 22.8575 41.3283 25.4623 40.6544 28.7951H37.1119V22.0199H26.9904V28.7951H23.4478C22.5209 24.2113 18.0686 21.2501 13.5034 22.1808C10.1842 22.8575 7.58991 25.4623 6.91598 28.7951H3.37345C2.44184 28.7951 1.68652 29.5535 1.68652 30.4889C1.68652 31.4243 2.44184 32.1827 3.37345 32.1827H6.91598C7.84295 36.7666 12.2952 39.7278 16.8604 38.7971C20.1796 38.1204 22.7739 35.5155 23.4478 32.1827H26.9904V38.958H37.1119V32.1827H40.6544C41.5814 36.7666 46.0336 39.7278 50.5988 38.7971C53.9181 38.1204 56.5123 35.5155 57.1863 32.1827H60.7288V38.958H70.8503V32.1827H86.0326C86.9642 32.1827 87.7195 31.4243 87.7195 30.4889C87.7195 29.5535 86.9642 28.7951 86.0326 28.7951ZM15.1819 35.5704C12.3869 35.5704 10.1211 33.2954 10.1211 30.4889C10.1211 27.6825 12.3869 25.4075 15.1819 25.4075C17.9769 25.4075 20.2427 27.6825 20.2427 30.4889C20.2427 33.2954 17.9769 35.5704 15.1819 35.5704ZM33.738 35.5704H30.3642V25.4075H33.738V35.5704ZM48.9203 35.5704C46.1253 35.5704 43.8596 33.2954 43.8596 30.4889C43.8596 27.6825 46.1253 25.4075 48.9203 25.4075C51.7154 25.4075 53.9811 27.6825 53.9811 30.4889C53.9811 33.2954 51.7154 35.5704 48.9203 35.5704ZM67.4765 35.5704H64.1026V25.4075H67.4765V35.5704Z" fill="#CC2C11"/>
<path d="M16.5323 11.857L13.7827 15.9984C13.2648 16.7759 13.4725 17.8275 14.2466 18.3477C15.0215 18.8669 16.0691 18.6571 16.5861 17.879C16.5861 17.8787 16.5863 17.8787 16.5863 17.8785L19.9602 12.7971C20.3385 12.228 20.3385 11.4861 19.9602 10.917L17.2071 6.77561L19.9568 2.63425C20.4738 1.85594 20.2647 0.804089 19.4895 0.284937C18.7144 -0.234216 17.6668 -0.0241836 17.1498 0.754122L13.7759 5.83555C13.3976 6.40467 13.3976 7.14656 13.7759 7.71568L16.5323 11.857Z" fill="black"/>
<path d="M33.4015 11.857L30.6518 15.9984C30.1339 16.7759 30.3416 17.8275 31.1157 18.3477C31.8906 18.8669 32.9382 18.6571 33.4553 17.879C33.4553 17.8787 33.4555 17.8787 33.4555 17.8785L36.8293 12.7971C37.2076 12.228 37.2076 11.4861 36.8293 10.917L34.0762 6.77561L36.8259 2.63425C37.343 1.85594 37.1338 0.804089 36.3587 0.284937C35.5835 -0.234216 34.5359 -0.0241836 34.0189 0.754122L30.645 5.83555C30.2668 6.40467 30.2668 7.14656 30.645 7.71568L33.4015 11.857Z" fill="black"/>
<path d="M50.2706 11.857L47.5209 15.9984C47.0031 16.7759 47.2108 17.8275 47.9848 18.3477C48.7598 18.8669 49.8073 18.6571 50.3244 17.879C50.3244 17.8787 50.3246 17.8787 50.3246 17.8785L53.6984 12.7971C54.0767 12.228 54.0767 11.4861 53.6984 10.917L50.9454 6.77561L53.6951 2.63425C54.2121 1.85594 54.0029 0.804089 53.2278 0.284937C52.4527 -0.234216 51.4051 -0.0241836 50.888 0.754122L47.5142 5.83555C47.1359 6.40467 47.1359 7.14656 47.5142 7.71568L50.2706 11.857Z" fill="black"/>
<path d="M65.4523 11.857L62.7026 15.9984C62.1847 16.7759 62.3924 17.8275 63.1665 18.3477C63.9414 18.8669 64.989 18.6571 65.506 17.879C65.506 17.8787 65.5062 17.8787 65.5062 17.8785L68.8801 12.7971C69.2584 12.228 69.2584 11.4861 68.8801 10.917L66.127 6.77561L68.8767 2.63425C69.3938 1.85594 69.1846 0.804089 68.4094 0.284937C67.6343 -0.234216 66.5867 -0.0241836 66.0697 0.754122L62.6958 5.83555C62.3175 6.40467 62.3175 7.14656 62.6958 7.71568L65.4523 11.857Z" fill="black"/>
</svg>
