<svg width="105" height="100" viewBox="0 0 105 100" fill="none" xmlns="http://www.w3.org/2000/svg">
<path d="M103.342 96.9258H91.742V96.8246C91.742 93.2593 88.8431 90.3586 85.2795 90.3586C84.6828 90.3586 84.0968 90.4429 83.5318 90.6052V85.1452C87.3898 84.808 91.0679 83.2428 93.9756 80.6355C97.7738 77.2301 99.952 72.3519 99.952 67.2524C99.952 64.08 99.1087 60.9584 97.5132 58.225C96.7729 56.957 96.4603 55.4178 96.6092 53.7731C96.7702 51.9925 96.6004 50.1933 96.1043 48.4256C94.5912 43.0312 90.0601 38.9408 84.5607 38.0046C80.229 37.266 75.846 38.4479 72.5356 41.2446C69.2229 44.0426 67.3232 48.1327 67.3232 52.4664C67.3232 52.8623 67.3398 53.264 67.3724 53.6606C67.5152 55.3893 67.1948 56.9871 66.4457 58.2814C66.1503 58.7913 65.8807 59.3172 65.637 59.8541L48.5441 48.4529C46.9203 47.3716 44.8219 47.3718 43.1973 48.4535L35.9132 53.312V49.0747H36.0189C36.8674 49.0747 37.5552 48.3867 37.5552 47.5376C37.5552 46.6885 36.8674 46.0005 36.0189 46.0005H24.5247C23.6763 46.0005 22.9884 46.6885 22.9884 47.5376C22.9884 48.3867 23.6763 49.0747 24.5247 49.0747H24.6304V60.6807C24.6304 60.7319 24.6331 60.7828 24.638 60.8328L21.3243 63.0431L16.1746 39.0013C16.0228 38.2926 15.3968 37.7861 14.6725 37.7861C13.9482 37.7861 13.3222 38.2926 13.1704 39.0013L3.31821 84.9978C3.22091 85.4516 3.33398 85.925 3.62567 86.2861C3.91737 86.6472 4.35634 86.8569 4.82051 86.8569H13.1364V96.9258H1.5363C0.687854 96.9258 0 97.6138 0 98.4629C0 99.312 0.687854 100 1.5363 100H103.342C104.191 100 104.878 99.312 104.878 98.4629C104.878 97.6138 104.191 96.9258 103.342 96.9258ZM27.703 49.0747H32.8406V55.3615L27.703 58.7884V49.0747ZM19.7042 96.9258H16.2088V86.8569H19.7042V96.9258ZM16.2088 83.7827V80.3912C16.2088 79.5421 15.521 78.8541 14.6725 78.8541C13.8241 78.8541 13.1362 79.5421 13.1362 80.3912V83.7827H6.72081L14.6725 46.6585L22.6242 83.7827H16.2088ZM70.4983 70.6438C70.1537 70.6438 69.8198 70.5424 69.5318 70.35L54.9357 60.6137C54.2298 60.1427 53.2759 60.3335 52.8054 61.04C52.3347 61.7462 52.5254 62.7007 53.2314 63.1714L67.8267 72.9071C68.1827 73.145 68.566 73.3295 68.9652 73.4641V96.9256H22.7768V86.8567H24.5245C24.9885 86.8567 25.4276 86.647 25.7193 86.2859C26.011 85.9248 26.1241 85.4514 26.0268 84.9976L23.4976 73.1901L45.8711 58.2621L48.3048 59.8857C49.0109 60.3567 49.9649 60.1659 50.4354 59.4594C50.9061 58.7532 50.7154 57.7987 50.0093 57.328L46.7233 55.1358C46.2071 54.7915 45.5348 54.7915 45.0186 55.1358L22.8051 69.9573L22.0166 66.2762L44.9006 51.0119C45.4899 50.6196 46.2519 50.6194 46.8404 51.0112L71.471 67.4403C71.8594 67.6992 72.1237 68.0939 72.2152 68.5521C72.3066 69.0102 72.2146 69.4765 71.9553 69.8655C71.6306 70.3528 71.0859 70.6438 70.4983 70.6438ZM72.0376 73.4658C73.0364 73.1305 73.9109 72.4734 74.5119 71.5708C75.2262 70.4992 75.4806 69.2129 75.2278 67.9494C74.9754 66.6861 74.2462 65.5968 73.1751 64.8825L68.236 61.588C68.4867 60.9822 68.7753 60.3903 69.1041 59.8224C70.1691 57.9826 70.6289 55.7644 70.4343 53.4077C70.4085 53.0952 70.3956 52.7785 70.3956 52.4664C70.3956 49.0403 71.8979 45.8062 74.5174 43.5935C77.1736 41.3502 80.5567 40.4416 84.0454 41.0354C88.38 41.7734 91.9524 45.0003 93.1462 49.2565C93.5409 50.6628 93.6766 52.0893 93.5491 53.496C93.3422 55.781 93.7956 57.9524 94.8599 59.7756C96.1811 62.0389 96.8794 64.6243 96.8794 67.2524C96.8794 71.4794 95.0738 75.5228 91.925 78.3462C89.5429 80.4818 86.6395 81.7553 83.5316 82.0683V75.4671C83.5316 74.618 82.844 73.93 81.9953 73.93C81.1467 73.93 80.459 74.618 80.459 75.4671V82.0642C80.4074 82.0591 80.356 82.0568 80.3044 82.0513C77.2664 81.7176 74.3529 80.3906 72.0376 78.2985V73.4658ZM80.4594 85.154V89.4628C79.4139 88.9757 78.264 88.7158 77.0695 88.7158C75.1694 88.7158 73.4211 89.3753 72.0378 90.4751V82.1831C74.4175 83.7788 77.1465 84.7968 79.9695 85.1068C80.1329 85.1249 80.2962 85.1405 80.4594 85.154ZM88.6694 96.9258H72.0378V96.8246C72.0378 94.0485 74.2952 91.7902 77.0695 91.7902C78.6544 91.7902 80.1188 92.5336 81.0867 93.8294C81.3316 94.1576 81.6973 94.3742 82.1029 94.4316C82.5076 94.4886 82.9196 94.382 83.2457 94.1342C83.8502 93.6755 84.5534 93.4331 85.2795 93.4331C87.1487 93.4329 88.6694 94.9544 88.6694 96.8246V96.9258Z" fill="black"/>
<path d="M57.26 84.0401V73.8242C57.26 72.9751 56.5724 72.2871 55.7237 72.2871H36.0195C35.1711 72.2871 34.4832 72.9751 34.4832 73.8242V84.0401C32.5766 84.6834 31.1992 86.4884 31.1992 88.6104C31.1992 91.2698 33.3617 93.4333 36.0195 93.4333C36.868 93.4333 37.5558 92.7452 37.5558 91.8961C37.5558 91.047 36.868 90.359 36.0195 90.359C35.0557 90.359 34.2718 89.5747 34.2718 88.6104C34.2718 87.6461 35.056 86.8618 36.0195 86.8618H55.7237C56.6875 86.8618 57.4714 87.6461 57.4714 88.6104C57.4714 89.5747 56.6875 90.359 55.7237 90.359H42.5875C41.7391 90.359 41.0512 91.047 41.0512 91.8961C41.0512 92.7452 41.7391 93.4333 42.5875 93.4333H55.7237C58.3817 93.4333 60.544 91.2696 60.544 88.6104C60.544 86.4884 59.1667 84.6836 57.26 84.0401ZM44.3354 83.7874H37.5558V75.3613H44.3354V83.7874ZM54.1874 83.7874H47.4078V75.3613H54.1874V83.7874Z" fill="#CC2C11"/>
<path d="M68.8588 0C63.4813 0 58.5783 2.57579 55.5204 6.94836C54.5042 6.69791 53.472 6.57146 52.4382 6.57146C46.4323 6.57146 41.2089 10.7565 39.7967 16.4961C34.961 17.0658 31.1977 21.1916 31.1977 26.1805C31.1977 26.8837 31.2739 27.5793 31.4251 28.2617C28.452 29.1828 26.2715 31.973 26.2715 35.2163C26.2715 36.307 26.5068 37.3567 26.9714 38.3366C27.335 39.1033 28.2515 39.43 29.0178 39.0664C29.7845 38.7028 30.111 37.7859 29.7476 37.019C29.4799 36.4541 29.3443 35.8477 29.3443 35.2161C29.3443 32.9479 31.1934 31.0632 33.4663 31.015C33.9794 31.0042 34.4532 30.7377 34.7291 30.3049C35.0051 29.872 35.0468 29.3297 34.8402 28.8596C34.462 27.9992 34.2703 27.0974 34.2703 26.1803C34.2703 22.525 37.221 19.5465 40.8641 19.5033C40.9137 19.509 40.9778 19.5146 41.0515 19.5156C41.0587 19.5158 41.0657 19.5158 41.0728 19.5158C41.8365 19.5158 42.4856 18.9538 42.5936 18.1953C43.2865 13.321 47.519 9.64568 52.4382 9.64568C53.5286 9.64568 54.6206 9.83178 55.6841 10.1988C56.3711 10.4356 57.1297 10.1595 57.5033 9.53563C59.9253 5.48974 64.1704 3.07422 68.8586 3.07422C76.1603 3.07422 82.1007 9.01752 82.1007 16.3231C82.1007 23.6287 76.1603 29.5722 68.8586 29.5722C66.0128 29.5722 63.2906 28.668 60.9864 26.957C60.4018 26.523 59.5931 26.5592 59.0492 27.0433C57.2186 28.6741 54.8709 29.5722 52.4384 29.5722C51.1256 29.5722 49.8449 29.3174 48.6323 28.8149C47.9176 28.5185 47.0949 28.8001 46.7111 29.4714C45.5162 31.5602 43.3066 32.8579 40.9444 32.8579C40.4858 32.8579 40.0216 32.8057 39.5253 32.6981C39.0244 32.5894 38.5025 32.738 38.1336 33.094C37.7647 33.4498 37.5975 33.9665 37.6876 34.4713C37.7411 34.7703 37.7661 35.007 37.7661 35.2167C37.7661 37.2996 36.2155 39.0924 34.1593 39.3872C33.3194 39.5075 32.736 40.2863 32.8563 41.1263C32.9661 41.8929 33.6232 42.4458 34.3752 42.4458C34.4477 42.4458 34.521 42.4407 34.5948 42.4302C37.9167 41.9543 40.4763 39.222 40.8035 35.9311C40.8506 35.9319 40.8977 35.9323 40.9446 35.9323C43.9726 35.9323 46.825 34.4852 48.6568 32.0855C49.8804 32.4581 51.1477 32.6464 52.4386 32.6464C55.2193 32.6464 57.9138 31.7522 60.1457 30.1073C62.7605 31.7721 65.7489 32.6464 68.8588 32.6464C77.8548 32.6464 85.1735 25.3238 85.1735 16.3231C85.1735 7.3226 77.8548 0 68.8588 0Z" fill="black"/>
</svg>
