<svg width="91" height="100" viewBox="0 0 91 100" fill="none" xmlns="http://www.w3.org/2000/svg">
<path d="M31.2125 71.8183C32.8836 71.8183 34.243 70.4589 34.243 68.7878V62.5253C34.243 60.854 32.8836 59.4946 31.2125 59.4946H3.03047C1.35937 59.4946 0 60.8542 0 62.5251V68.7876C0 70.4587 1.35937 71.8181 3.03047 71.8181H3.13125V97.0702H1.46484C0.655859 97.0702 0 97.7261 0 98.5351C0 99.344 0.655859 99.9999 1.46484 99.9999H32.7779C33.5869 99.9999 34.2428 99.344 34.2428 98.5351C34.2428 97.7261 33.5869 97.0702 32.7779 97.0702H31.1115V71.8183H31.2125ZM28.182 97.0702H6.06113V90.606H20.3537V92.2724C20.3537 93.0813 21.0096 93.7372 21.8186 93.7372C22.6275 93.7372 23.2834 93.0813 23.2834 92.2724V90.606H28.182V97.0702ZM23.3842 78.2823H13.8895V76.6159C13.8895 75.8069 13.2336 75.1511 12.4246 75.1511C11.6156 75.1511 10.9598 75.8069 10.9598 76.6159V78.2823H6.06113V71.8183H28.1818V87.6763H18.5863V81.212H23.3842C24.1932 81.212 24.849 80.5562 24.849 79.7472C24.849 78.9382 24.1932 78.2823 23.3842 78.2823ZM15.6564 81.2122V87.6765H6.06113V81.2122H15.6564ZM18.5861 68.8886V67.2222C18.5861 66.4132 17.9303 65.7573 17.1213 65.7573C16.3123 65.7573 15.6564 66.4132 15.6564 67.2222V68.8886H3.03047C2.9748 68.8886 2.92969 68.8435 2.92969 68.7878V62.5253C2.92969 62.4696 2.9748 62.4245 3.03047 62.4245H31.2123C31.268 62.4245 31.3131 62.4698 31.3131 62.5253V68.7878C31.3131 68.8435 31.268 68.8886 31.2123 68.8886H18.5861Z" fill="#CC2C11"/>
<path d="M62.5252 0C56.6445 0 51.0467 1.80234 46.2637 5.22012C46.223 5.23848 46.1834 5.25957 46.1441 5.28184C43.4646 3.87227 40.4883 3.13125 37.4748 3.13125C27.1707 3.13125 18.7877 11.5143 18.7877 21.8182C18.7877 21.9789 18.7898 22.1402 18.7945 22.3029C13.35 23.6688 9.39395 28.6232 9.39395 34.3434C9.39395 35.966 9.70313 37.5363 10.3143 39.0252C8.72285 40.7391 7.82812 42.9725 7.82812 45.3029C7.82812 50.4272 11.9971 54.5961 17.1213 54.5961C19.7539 54.5961 22.2734 53.4727 24.0344 51.5139C24.5752 50.9121 24.526 49.9859 23.9242 49.4451C23.3227 48.9043 22.3965 48.9535 21.8557 49.5553C20.6496 50.8969 18.924 51.6664 17.1215 51.6664C13.6127 51.6664 10.758 48.8119 10.758 45.3029C10.758 43.4604 11.5857 41.701 13.0291 40.4758C13.549 40.0346 13.6955 39.293 13.3828 38.6871C12.6799 37.3254 12.3236 35.8639 12.3236 34.3434C12.3236 29.6205 15.8533 25.5811 20.534 24.9471C21.3141 24.8414 21.8711 24.1381 21.7953 23.3545C21.7428 22.8125 21.7174 22.31 21.7174 21.8182C21.7174 13.1295 28.7861 6.06094 37.4748 6.06094C39.585 6.06094 41.6748 6.49316 43.6184 7.32227C42.7309 8.13105 41.893 8.99473 41.1152 9.91016C40.5914 10.5268 40.6666 11.4512 41.2832 11.975C41.5588 12.209 41.8957 12.3234 42.2311 12.3234C42.6461 12.3234 43.0584 12.148 43.348 11.8068C44.4324 10.5305 45.6447 9.36445 46.9584 8.32773C47.0322 8.28887 47.1041 8.24492 47.1717 8.19277C51.6242 4.74961 56.9332 2.92969 62.5252 2.92969C76.3936 2.92969 87.6764 14.2125 87.6764 28.0809C87.6764 41.9492 76.3936 53.232 62.5252 53.232C52.666 53.232 43.6695 47.4094 39.6055 38.398C39.3586 37.8508 38.8006 37.5092 38.2033 37.5369C38.0963 37.5418 37.99 37.5488 37.8836 37.5561C37.7359 37.566 37.5965 37.5756 37.4748 37.5756C35.8098 37.5756 34.1488 37.3061 32.5381 36.7746C32.4881 36.7582 32.4377 36.7449 32.3871 36.734C30.974 36.2525 29.6385 35.5746 28.409 34.7082C27.7479 34.2422 26.8338 34.4004 26.3678 35.0617C25.9018 35.723 26.06 36.6369 26.7213 37.1029C27.7799 37.849 28.9051 38.4775 30.0836 38.9852C28.8777 41.1262 26.8697 42.7518 24.492 43.4488C23.7156 43.6766 23.2709 44.4904 23.4986 45.2666C23.7262 46.043 24.5398 46.4877 25.3164 46.2602C28.6092 45.2947 31.3643 42.9736 32.9027 39.9307C34.368 40.3027 35.8619 40.4953 37.3609 40.5047C42.0793 50.0488 51.8486 56.1615 62.5248 56.1615C78.0086 56.1615 90.6057 43.5645 90.6057 28.0807C90.6057 12.5969 78.0092 0 62.5252 0Z" fill="black"/>
</svg>
