<svg width="100" height="100" viewBox="0 0 100 100" fill="none" xmlns="http://www.w3.org/2000/svg">
<path d="M25.8069 79.0322H22.5811V85.4838H25.8069V79.0322Z" fill="#CC2C11"/>
<path d="M83.871 33.9436V30.6452C83.871 28.4597 82.4048 26.629 80.4129 26.0306L76.0758 2.89839C75.7597 1.21935 74.2903 0 72.5806 0C70.871 0 69.4016 1.21935 69.0855 2.9L64.7484 26.0306C62.7565 26.629 61.2903 28.4597 61.2903 30.6452V33.9436C56.6823 34.3613 52.5855 36.5532 49.6694 39.8226C48.7613 39.3419 47.7871 39.0161 46.7742 38.8468V37.0968C46.7742 34.95 45.3597 33.1468 43.421 32.5161L40.4758 3.05806C40.3 1.3129 38.8484 0 37.0968 0C35.3452 0 33.8936 1.3129 33.7177 3.05806L30.7726 32.5161C28.8339 33.1468 27.4194 34.95 27.4194 37.0968V38.8548C22.85 39.6258 19.3548 43.6 19.3548 48.3871V54.8387H16.129C14.35 54.8387 12.9032 56.2855 12.9032 58.0645V64.5161H4.83871C2.17097 64.5161 0 66.6871 0 69.3548V95.1613C0 97.829 2.17097 100 4.83871 100H43.5484C44.1161 100 44.6548 99.8839 45.1613 99.7032V100H100V51.6129C100 42.3726 92.9016 34.7613 83.871 33.9436ZM72.2548 3.49677C72.3145 3.18226 72.8468 3.18387 72.9064 3.49516L77.0887 25.8065H68.071L72.2548 3.49677ZM64.5161 30.6452C64.5161 29.7548 65.2387 29.0323 66.129 29.0323H79.0323C79.9226 29.0323 80.6452 29.7548 80.6452 30.6452V33.871H64.5161V30.6452ZM36.929 3.37903C36.9452 3.20645 37.25 3.20645 37.2661 3.37903L40.1532 32.2581H34.0403L36.929 3.37903ZM30.6452 37.0968C30.6452 36.2065 31.3677 35.4839 32.2581 35.4839H41.9355C42.8258 35.4839 43.5484 36.2065 43.5484 37.0968V38.7097H30.6452V37.0968ZM16.129 58.0645H32.2581V64.5161H16.129V58.0645ZM45.1613 95.1613C45.1613 96.0516 44.4387 96.7742 43.5484 96.7742H4.83871C3.94839 96.7742 3.22581 96.0516 3.22581 95.1613V91.9355H45.1613V95.1613ZM45.1613 88.7097H3.22581V75.8064H45.1613V88.7097ZM45.1613 72.5806H3.22581V69.3548C3.22581 68.4645 3.94839 67.7419 4.83871 67.7419H12.9032H35.4839H43.5484C44.4387 67.7419 45.1613 68.4645 45.1613 69.3548V72.5806ZM45.1613 51.6129V64.8129C44.6548 64.6323 44.1161 64.5161 43.5484 64.5161H35.4839V58.0645C35.4839 56.2855 34.0371 54.8387 32.2581 54.8387H22.5806V48.3871C22.5806 44.829 25.4742 41.9355 29.0323 41.9355H45.1613C46.0532 41.9355 46.9113 42.1339 47.7113 42.4806C46.1 45.1516 45.1613 48.2726 45.1613 51.6129ZM96.7742 96.7742H48.3871V95.1613V85.4839H96.7742V96.7742ZM96.7742 82.2581H48.3871V69.3548V56.4516H96.7742V82.2581ZM96.7742 53.2258H48.3871V51.6129C48.3871 43.6081 54.8984 37.0968 62.9032 37.0968H64.5161H80.6452H82.2581C90.2629 37.0968 96.7742 43.6081 96.7742 51.6129V53.2258Z" fill="black"/>
<path d="M72.0989 79.0322H73.0634C77.244 79.0322 80.6456 75.6306 80.6456 71.4499C80.6456 69.7354 80.0553 68.0516 78.9843 66.7112L72.5811 58.708L66.1795 66.7112C65.1069 68.0499 64.5166 69.7338 64.5166 71.4499C64.5166 75.6306 67.9182 79.0322 72.0989 79.0322ZM68.6989 68.7274L72.5811 63.8725L76.465 68.729C77.0811 69.4967 77.4198 70.4645 77.4198 71.4499C77.4198 73.8516 75.465 75.8064 73.0634 75.8064H72.0989C69.6972 75.8064 67.7424 73.8516 67.7424 71.4499C67.7424 70.4645 68.0811 69.4967 68.6989 68.7274Z" fill="#CC2C11"/>
<path d="M93.5481 75.8064H90.3223V79.0322H93.5481V75.8064Z" fill="#CC2C11"/>
<path d="M87.0969 75.8064H83.8711V79.0322H87.0969V75.8064Z" fill="#CC2C11"/>
<path d="M93.5481 69.3547H90.3223V72.5805H93.5481V69.3547Z" fill="#CC2C11"/>
<path d="M41.9358 82.2581H38.71V85.4839H41.9358V82.2581Z" fill="#CC2C11"/>
</svg>
