<svg width="99" height="98" viewBox="0 0 99 98" fill="none" xmlns="http://www.w3.org/2000/svg">
<path d="M69.8394 76.3185C69.557 77.0244 68.7503 77.3471 68.0645 77.0648L63.5064 75.1689C62.6996 74.826 61.7719 75.1084 61.2878 75.8345C59.2306 78.9203 56.6087 81.5422 53.5228 83.5994C52.7968 84.0835 52.5144 85.0112 52.8573 85.818L54.733 90.3761C55.0153 91.0619 54.6926 91.8686 53.9867 92.151L49.0252 94.2284C48.3395 94.5107 47.5327 94.188 47.2504 93.4821L45.3545 88.924C45.0116 88.1172 44.1645 87.6534 43.3175 87.8349C39.6871 88.561 35.9962 88.561 32.3456 87.8349C31.4986 87.6735 30.6313 88.1172 30.3086 88.924L28.4127 93.4821C28.1304 94.1679 27.3236 94.5107 26.6379 94.2284L21.6764 92.1712C21.3335 92.03 21.0713 91.7678 20.9301 91.4249C20.7889 91.082 20.7889 90.719 20.9301 90.3761L22.826 85.818C23.1689 85.0112 22.8865 84.0835 22.1604 83.5994C19.0746 81.5422 16.4527 78.9203 14.3955 75.8345C13.9114 75.1084 12.9836 74.826 12.1769 75.1689L7.61875 77.0648C6.91284 77.3471 6.12626 77.0244 5.8439 76.3185L3.78668 71.357C3.50432 70.6713 3.82702 69.8645 4.53293 69.5821L9.09107 67.6863C9.89782 67.3434 10.3617 66.4963 10.1802 65.6492C9.45411 62.0189 9.45411 58.328 10.1802 54.6774C10.3415 53.8303 9.89782 52.9631 9.09107 52.6404L4.53293 50.7445C4.19006 50.6033 3.92787 50.3411 3.78668 49.9983C3.6455 49.6554 3.6455 49.2924 3.78668 48.9495L5.8439 43.988C5.98508 43.6451 6.24727 43.3829 6.59014 43.2417C6.93301 43.1006 7.29605 43.1006 7.63892 43.2417L12.1971 45.1376C13.0038 45.4805 13.9316 45.1981 14.4156 44.472C16.4728 41.3862 19.0948 38.7643 22.1806 36.7071C22.9067 36.223 23.189 35.2953 22.8462 34.4885L20.9503 29.9304C20.8091 29.5875 20.8091 29.2245 20.9503 28.8816C21.0915 28.5387 21.3537 28.2765 21.6965 28.1353L26.6581 26.0781C27.3438 25.7958 28.1505 26.1185 28.4329 26.8244L30.3288 31.3825C30.712 32.3103 31.7809 32.754 32.7087 32.3708C33.6365 31.9876 34.0802 30.9186 33.697 29.9909L31.8011 25.4327C30.7321 22.8713 27.8077 21.6612 25.2462 22.7099L20.2847 24.7672C19.0544 25.2714 18.0863 26.2395 17.5619 27.4899C17.0577 28.7202 17.0577 30.0917 17.5619 31.3422L18.8931 34.549C16.3518 36.4247 14.1131 38.6634 12.2172 41.2249L9.01039 39.8937C7.7801 39.3895 6.40862 39.3895 5.15816 39.8937C3.92787 40.398 2.95977 41.3661 2.43538 42.6165L0.378164 47.578C-0.126055 48.8083 -0.126055 50.1798 0.378164 51.4303C0.882383 52.6606 1.85048 53.6287 3.10095 54.153L6.30778 55.4842C5.82373 58.6305 5.82373 61.7768 6.30778 64.9232L3.10095 66.2543C0.539514 67.3232 -0.670611 70.2477 0.378164 72.8091L2.43538 77.7102C3.48415 80.2716 6.42879 81.4817 8.99022 80.4329L12.1971 79.1018C14.0728 81.6431 16.3115 83.8818 18.8729 85.7777L17.5418 88.9845C17.0376 90.2148 17.0376 91.5863 17.5418 92.8367C18.046 94.067 19.0141 95.0351 20.2646 95.5595L25.2261 97.6167C27.7875 98.6655 30.7321 97.4554 31.7809 94.8939L33.1121 91.6871C36.2584 92.1712 39.4047 92.1712 42.551 91.6871L43.8822 94.8939C44.6889 96.8301 46.5646 97.9999 48.521 97.9999C49.1664 97.9999 49.8118 97.8789 50.437 97.6167L55.3985 95.5595C57.96 94.4906 59.1701 91.5661 58.1213 89.0047L56.7902 85.7978C59.3315 83.9221 61.5702 81.6834 63.466 79.122L66.6729 80.4531C69.2343 81.522 72.179 80.2918 73.2277 77.7303L75.2849 72.7688C75.7892 71.5385 75.7892 70.167 75.2849 68.9166C74.7807 67.6863 73.8126 66.7182 72.5622 66.1938L68.004 64.2979C67.0763 63.9147 66.0073 64.3584 65.6241 65.2862C65.2409 66.214 65.6846 67.2829 66.6124 67.6661L71.1705 69.562C71.5134 69.7032 71.7756 69.9654 71.9168 70.3082C72.0579 70.6511 72.0579 71.0141 71.9168 71.357L69.8394 76.3185Z" fill="black"/>
<path d="M37.7308 47.6791C38.7393 47.6791 39.546 46.8522 39.546 45.8438C39.546 44.8353 38.7191 44.0286 37.7107 44.0286C37.7107 44.0286 37.7107 44.0286 37.6905 44.0286C33.3744 44.0689 29.3406 45.7631 26.3153 48.8287C23.29 51.8944 21.6362 55.9685 21.6765 60.2644C21.7168 64.5805 23.411 68.6143 26.4767 71.6396C29.5221 74.6447 33.5357 76.2784 37.7913 76.2784C37.8317 76.2784 37.872 76.2784 37.9124 76.2784C42.2285 76.2381 46.2622 74.5439 49.2875 71.4782C52.3129 68.4126 53.9667 64.3385 53.9263 60.0426C53.9263 59.0341 53.0994 58.2274 52.091 58.2274C52.091 58.2274 52.091 58.2274 52.0708 58.2274C51.0624 58.2274 50.2556 59.0543 50.2556 60.0627C50.2758 63.3906 49.0052 66.5369 46.6656 68.9168C44.326 71.2967 41.1999 72.6077 37.872 72.6279C37.8317 72.6279 37.8115 72.6279 37.7712 72.6279C34.4837 72.6279 31.3575 71.3572 29.0179 69.0378C26.638 66.6982 25.327 63.5721 25.3069 60.2442C25.2867 56.9164 26.5573 53.7701 28.8969 51.3902C31.2768 49.0304 34.403 47.6993 37.7308 47.6791Z" fill="black"/>
<path d="M94.7075 35.255C96.9866 35.255 98.8623 33.3995 98.8623 31.1002V27.2077C98.8623 24.9286 97.0067 23.0529 94.7075 23.0529H92.5898C92.0452 21.036 91.2586 19.0998 90.2099 17.3048L91.7225 15.7921C93.336 14.1786 93.336 11.5365 91.7225 9.92303L88.9594 7.15991C88.1728 6.37333 87.1241 5.94978 86.0349 5.94978C84.9257 5.94978 83.8769 6.37333 83.1105 7.15991L81.5978 8.67257C79.7826 7.62379 77.8666 6.81704 75.8497 6.29265V4.15476C75.8497 1.87569 73.9942 0 71.695 0H67.7822C65.5031 0 63.6275 1.85553 63.6275 4.15476V6.29265C61.6106 6.83721 59.6744 7.62379 57.8794 8.67257L56.3667 7.15991C55.5801 6.37333 54.5313 5.94978 53.4422 5.94978C52.3329 5.94978 51.2842 6.37333 50.5178 7.15991L47.7546 9.92303C46.1411 11.5365 46.1411 14.1786 47.7546 15.7921L49.2673 17.3048C48.2185 19.12 47.4118 21.036 46.8874 23.0529H44.7495C42.4704 23.0529 40.5947 24.9084 40.5947 27.2077V31.1204C40.5947 33.3995 42.4503 35.2752 44.7495 35.2752H46.8874C47.4319 37.292 48.2185 39.2282 49.2673 41.0233L47.7546 42.5359C46.1411 44.1494 46.1411 46.7915 47.7546 48.405L50.5178 51.1681C51.3043 51.9547 52.3531 52.3783 53.4422 52.3783C54.5515 52.3783 55.6003 51.9547 56.3667 51.1681L57.8794 49.6555C59.6945 50.7043 61.6106 51.511 63.6275 52.0354V54.1733C63.6275 56.4524 65.483 58.3281 67.7822 58.3281H71.695C73.974 58.3281 75.8497 56.4725 75.8497 54.1733V52.0152C77.8666 51.4707 79.8028 50.6841 81.5978 49.6353L83.1105 51.148C83.8971 51.9346 84.9458 52.3581 86.0349 52.3581C87.1442 52.3581 88.193 51.9346 88.9594 51.148L91.7225 48.3848C93.336 46.7714 93.336 44.1292 91.7225 42.5157L90.2099 41.0031C91.2586 39.1879 92.0654 37.2719 92.5898 35.255H94.7075ZM89.3426 33.0768C88.8384 35.6584 87.83 38.0786 86.3576 40.277C85.8736 41.0031 85.9744 41.9712 86.5795 42.5763L89.1208 45.1175C89.3224 45.3192 89.3224 45.6217 89.1208 45.8234L86.3576 48.5865C86.2366 48.7076 86.0954 48.7277 86.0148 48.7277C85.9139 48.7277 85.7929 48.7076 85.6719 48.5865L83.1306 46.0453C82.5054 45.42 81.5373 45.3394 80.8314 45.8234C78.633 47.2957 76.2128 48.284 73.6312 48.8084C72.7841 48.9697 72.1588 49.7362 72.1588 50.6034V54.1935C72.1588 54.4557 71.937 54.6775 71.6748 54.6775H67.762C67.4999 54.6775 67.278 54.4557 67.278 54.1935V50.6034C67.278 49.7362 66.6528 48.9899 65.8057 48.8084C63.2241 48.3042 60.8038 47.2957 58.6054 45.8234C58.3029 45.6217 57.9399 45.5209 57.597 45.5209C57.1331 45.5209 56.6491 45.7024 56.3062 46.0654L53.7649 48.6067C53.6439 48.7277 53.5027 48.7479 53.4221 48.7479C53.3212 48.7479 53.2002 48.7277 53.0792 48.6067L50.3161 45.8436C50.1144 45.6419 50.1144 45.3394 50.3161 45.1377L52.8573 42.5964C53.4826 41.9712 53.5632 41.0031 53.0792 40.2972C51.6069 38.0988 50.6186 35.6785 50.0942 33.0969C49.9329 32.2498 49.1665 31.6246 48.2992 31.6246H44.7092C44.447 31.6246 44.2251 31.4028 44.2251 31.1406V27.2077C44.2251 26.9455 44.447 26.7236 44.7092 26.7236H48.2992C49.1665 26.7236 49.9127 26.0984 50.0942 25.2513C50.5984 22.6697 51.6069 20.2494 53.0792 18.051C53.5632 17.325 53.4624 16.3569 52.8573 15.7518L50.3161 13.2105C50.1951 13.0895 50.1749 12.9483 50.1749 12.8677C50.1749 12.7668 50.1951 12.6458 50.3161 12.5248L53.059 9.74151C53.18 9.6205 53.3212 9.60033 53.4019 9.60033C53.5027 9.60033 53.6237 9.6205 53.7448 9.74151L56.286 12.2828C56.9113 12.908 57.8794 12.9887 58.5853 12.5046C60.7837 11.0323 63.2039 10.044 65.7855 9.51965C66.6326 9.3583 67.2578 8.59189 67.2578 7.72463V4.15476C67.2578 3.89257 67.4797 3.67071 67.7419 3.67071H71.6546C71.9168 3.67071 72.1387 3.89257 72.1387 4.15476V7.7448C72.1387 8.61206 72.7639 9.3583 73.611 9.53982C76.1926 10.044 78.6128 11.0525 80.8112 12.5248C81.5373 13.0088 82.5054 12.908 83.1105 12.3029L85.6517 9.76168C85.7727 9.64067 85.9139 9.6205 85.9946 9.6205C86.0954 9.6205 86.2165 9.64067 86.3375 9.76168L89.1006 12.5248C89.3023 12.7265 89.3023 13.029 89.1006 13.2307L86.5593 15.772C85.9341 16.3972 85.8534 17.3653 86.3375 18.0712C87.8098 20.2696 88.7981 22.6899 89.3224 25.2715C89.4838 26.1185 90.2502 26.7438 91.1175 26.7438H94.7075C94.9697 26.7438 95.1916 26.9656 95.1916 27.2278V31.1406C95.1916 31.4028 94.9697 31.6246 94.7075 31.6246H91.1175C90.2502 31.6044 89.504 32.2095 89.3426 33.0768Z" fill="#CC2C11"/>
<path d="M69.718 17.4258C63.2439 17.4258 58 22.6898 58 29.1438C58 35.618 63.264 40.8619 69.718 40.8619C76.1922 40.8619 81.4361 35.5978 81.4361 29.1438C81.4361 22.6898 76.172 17.4258 69.718 17.4258ZM69.718 37.2113C65.2607 37.2113 61.6505 33.6011 61.6505 29.1438C61.6505 24.6865 65.2607 21.0763 69.718 21.0763C74.1753 21.0763 77.7855 24.6865 77.7855 29.1438C77.7855 33.6011 74.1552 37.2113 69.718 37.2113Z" fill="#CC2C11"/>
</svg>
