<svg width="90" height="90" viewBox="0 0 90 90" fill="none" xmlns="http://www.w3.org/2000/svg">
<path d="M88.548 37.7419H1.45125C0.649597 37.7421 -0.000181414 38.3923 3.79937e-08 39.1939C3.79937e-08 39.2578 0.00417343 39.3218 0.0127017 39.3852L5.80609 82.8378V88.5484C5.80609 89.35 6.45605 90 7.2577 90H82.7416C83.5432 90 84.1932 89.35 84.1932 88.5484V82.8378L89.9866 39.3852C90.0419 38.9704 89.9154 38.5518 89.6396 38.2369C89.364 37.9225 88.9663 37.7419 88.548 37.7419ZM65.3222 40.6452H71.1287V60.9678H65.3222V40.6452ZM50.8061 40.6452H62.419V60.9678H50.8061V40.6452ZM42.0964 40.6452H47.9029V60.9678H42.0964V40.6452ZM27.5803 40.6452H39.1932V60.9678H27.5803V40.6452ZM18.8706 40.6452H24.6771V60.9678H18.8706V40.6452ZM3.11044 40.6452H15.9674V60.9678H5.81915L3.11044 40.6452ZM6.98044 69.6774H15.9674V81.2903H8.52931L6.98044 69.6774ZM81.29 87.0968H8.70932V84.1936H81.29V87.0968ZM18.8706 81.2903V69.6774H24.6771V81.2903H18.8706ZM27.5803 81.2903V69.6774H39.1932V81.2903H27.5803ZM42.0964 81.2903V69.6774H47.9029V81.2903H42.0964ZM50.8061 81.2903V69.6774H62.419V81.2903H50.8061ZM65.3222 81.2903V69.6774H71.1287V81.2903H65.3222ZM81.47 81.2903H74.0319V69.6774H83.0188L81.47 81.2903ZM83.405 66.7742H6.59432L6.20673 63.871H83.7925L83.405 66.7742ZM84.1801 60.9678H74.0319V40.6452H86.8888L84.1801 60.9678Z" fill="black"/>
<path d="M8.70968 17.4194C13.52 17.4194 17.4194 13.52 17.4194 8.70968C17.4194 3.8994 13.52 0 8.70968 0C3.8994 0 0 3.8994 0 8.70968C0.00471774 13.518 3.90139 17.4146 8.70968 17.4194ZM8.70968 2.90323C11.9165 2.90323 14.5161 5.50288 14.5161 8.70968C14.5161 11.9165 11.9165 14.5161 8.70968 14.5161C5.50288 14.5161 2.90323 11.9165 2.90323 8.70968C2.90323 5.50288 5.50288 2.90323 8.70968 2.90323Z" fill="#CC2C11"/>
<path d="M14.5156 23.2256C14.5156 26.4324 17.1153 29.0321 20.3221 29.0321C23.5289 29.0321 26.1285 26.4324 26.1285 23.2256C26.1285 20.0188 23.5289 17.4192 20.3221 17.4192C17.1153 17.4192 14.5156 20.0188 14.5156 23.2256ZM20.3221 20.3224C21.9256 20.3224 23.2253 21.6222 23.2253 23.2256C23.2253 24.8291 21.9256 26.1289 20.3221 26.1289C18.7186 26.1289 17.4189 24.8291 17.4189 23.2256C17.4189 21.6222 18.7186 20.3224 20.3221 20.3224Z" fill="#CC2C11"/>
<path d="M75.4842 33.3871C78.691 33.3871 81.2906 30.7874 81.2906 27.5806C81.2906 24.3738 78.691 21.7742 75.4842 21.7742C72.2774 21.7742 69.6777 24.3738 69.6777 27.5806C69.6777 30.7874 72.2774 33.3871 75.4842 33.3871ZM75.4842 24.6774C77.0877 24.6774 78.3874 25.9771 78.3874 27.5806C78.3874 29.1841 77.0877 30.4838 75.4842 30.4838C73.8807 30.4838 72.581 29.1841 72.581 27.5806C72.581 25.9771 73.8807 24.6774 75.4842 24.6774Z" fill="#CC2C11"/>
<path d="M81.2898 17.4194C86.1 17.4194 89.9994 13.52 89.9994 8.70968C89.9994 3.8994 86.1 0 81.2898 0C76.4795 0 72.5801 3.8994 72.5801 8.70968C72.5848 13.518 76.4815 17.4146 81.2898 17.4194ZM81.2898 2.90323C84.4966 2.90323 87.0962 5.50288 87.0962 8.70968C87.0962 11.9165 84.4966 14.5161 81.2898 14.5161C78.083 14.5161 75.4833 11.9165 75.4833 8.70968C75.4833 5.50288 78.083 2.90323 81.2898 2.90323Z" fill="#CC2C11"/>
<path d="M39.6185 34.4135L41.6711 32.3609L37.5659 28.2543C36.7514 27.4363 36.2929 26.3298 36.29 25.1754V24.1796C36.2929 23.0252 36.7514 21.9187 37.5659 21.1007L39.9698 18.6939C41.3354 17.336 42.1011 15.4882 42.0964 13.5625V12.5667C42.1011 10.6409 41.3354 8.79321 39.9698 7.43523L35.8646 3.32861L33.8121 5.38119L37.9172 9.48781C38.7318 10.3058 39.1903 11.4123 39.1932 12.5667V13.5625C39.1903 14.7169 38.7318 15.8234 37.9172 16.6414L35.5134 19.0481C34.1477 20.4061 33.382 22.2538 33.3867 24.1796V25.1754C33.382 27.1011 34.1477 28.9489 35.5134 30.3068L39.6185 34.4135Z" fill="#CC2C11"/>
<path d="M54.1351 34.4135L56.1877 32.3609L52.0825 28.2543C51.268 27.4363 50.8095 26.3298 50.8066 25.1754V24.1796C50.8095 23.0252 51.268 21.9187 52.0825 21.1007L54.4864 18.6939C55.852 17.336 56.6177 15.4882 56.613 13.5625V12.5667C56.6177 10.6409 55.852 8.79321 54.4864 7.43523L50.3812 3.32861L48.3287 5.38119L52.4338 9.48781C53.2484 10.3058 53.7069 11.4123 53.7098 12.5667V13.5625C53.7069 14.7169 53.2484 15.8234 52.4338 16.6414L50.03 19.0481C48.6644 20.4061 47.8986 22.2538 47.9033 24.1796V25.1754C47.8986 27.1011 48.6644 28.9489 50.03 30.3068L54.1351 34.4135Z" fill="#CC2C11"/>
</svg>
